<?xml version="1.0" encoding="UTF-8"?>
<!DOCTYPE svg PUBLIC "-//W3C//DTD SVG 1.1//EN" "http://www.w3.org/Graphics/SVG/1.1/DTD/svg11.dtd">
<!-- Creator: CorelDRAW 2018 (64-Bit) -->
<svg xmlns="http://www.w3.org/2000/svg" xml:space="preserve" width="280px" height="280px" version="1.1" shape-rendering="geometricPrecision" text-rendering="geometricPrecision" image-rendering="optimizeQuality" fill-rule="evenodd" clip-rule="evenodd"
viewBox="0 0 1157 1157"
 xmlns:xlink="http://www.w3.org/1999/xlink">
 <g id="Layer_x0020_1">
  <metadata id="CorelCorpID_0Corel-Layer"/>
  <g id="_2559182316784">
   <polygon fill="#196D6D" points="0,1157 1157,1157 1157,0 0,0 "/>
   <path fill="#FEFEFE" d="M217 357c-98,9 -122,112 -124,194 -1,33 0,69 5,102 4,28 12,59 25,81 21,36 49,60 92,67 4,1 49,1 52,0 2,-1 5,-5 3,-9 -2,-3 -6,-3 -10,-3 -28,0 -46,3 -72,-8 -81,-36 -85,-155 -83,-236 2,-44 10,-91 33,-127 7,-10 16,-21 25,-28 27,-20 46,-22 85,-22l79 0c7,-1 11,-12 -4,-12 -23,0 -88,-1 -106,1zm143 469c-6,2 -4,15 -4,22l1 80c0,96 88,132 182,137 28,1 75,0 102,-3 31,-3 59,-10 84,-22 38,-18 65,-47 74,-86 4,-16 3,-34 3,-51 0,-3 0,-9 0,-12 -2,-2 -5,-5 -9,-3 -9,5 3,40 -8,72 -9,27 -28,47 -48,59 -51,32 -111,34 -179,34 -50,-1 -108,-8 -148,-39 -2,-1 -5,-4 -7,-6 -11,-12 -20,-21 -27,-39 -6,-16 -7,-29 -7,-47 0,-5 0,-90 -1,-92 -1,-4 -4,-6 -8,-4zm531 -470c-5,2 -9,12 5,12 26,0 48,-3 72,8 14,6 21,12 32,21 51,51 54,140 52,214 -2,67 -20,126 -58,156 -25,19 -44,22 -83,22 -18,0 -36,0 -54,0 -8,0 -18,0 -26,0 -9,1 -10,12 2,12 17,0 35,0 52,0 34,0 64,4 95,-11 12,-6 22,-13 31,-22 6,-6 7,-6 13,-14 30,-39 39,-98 40,-147 2,-65 0,-126 -29,-183 -19,-36 -52,-61 -92,-68 -4,-1 -49,-1 -52,0zm-338 -263c-58,2 -118,12 -161,52 -14,14 -32,40 -36,70 0,6 0,49 1,52 2,3 6,4 9,1 3,-2 2,-6 2,-11 0,-28 -2,-45 9,-70 6,-14 14,-23 22,-31 39,-40 106,-51 162,-51 34,-1 69,-1 102,5 61,10 109,37 123,89 4,16 3,32 4,49 0,18 0,36 0,54 0,4 -1,23 0,26 1,4 12,10 12,-7 0,-18 0,-35 0,-53 0,-36 2,-64 -13,-94 -11,-23 -30,-40 -53,-53 -50,-28 -119,-31 -183,-28l0 0zm-81 143l106 -107c3,1 11,10 14,13l40 40c3,2 52,50 54,54 -3,3 -5,5 -8,8l-24 25c-1,2 -6,5 -4,10 1,5 8,4 10,1l32 -33c12,-11 10,-13 4,-19 -6,-5 -11,-10 -16,-16 -3,-2 -5,-5 -8,-8l-81 -81c-14,-13 -11,-13 -27,3 -3,3 -5,5 -8,8l-24 25c-11,11 -21,21 -32,32 -7,7 -36,35 -41,41 -5,6 3,11 10,19 3,2 6,5 9,8 5,5 10,11 15,16l17 17c10,11 21,21 31,32 2,2 6,7 11,5 5,-2 4,-8 0,-11 -5,-6 -9,-11 -16,-16 -5,-5 -11,-12 -16,-17 -5,-5 -10,-11 -16,-16 -5,-6 -10,-12 -15,-17l-17 -16 0 0zm-237 447l-52 -52c-10,-9 -18,-17 -27,-26l-13 -13c-3,-4 -11,-10 -14,-14 2,-3 10,-9 14,-13 4,-5 8,-9 13,-14 9,-9 18,-18 26,-27l40 -41c3,-3 11,-12 14,-13l33 31c2,2 5,7 10,5 5,-1 5,-7 2,-10l-33 -32c-14,-12 -8,-17 -35,11l-56 58c-3,3 -6,5 -8,8l-24 24c-3,3 -6,6 -9,8 -5,7 3,12 10,19l24 24c3,3 6,6 8,8l70 68c1,1 2,3 4,4 4,4 9,-1 11,-3l24 -23c2,-2 3,-3 5,-4l44 -44c3,-3 6,-6 9,-8 2,-2 7,-6 4,-11 -6,-9 -19,8 -28,16 -2,3 -5,5 -8,8 -3,3 -5,6 -8,8 -6,6 -11,10 -16,16 -5,5 -12,11 -17,16 -4,4 -12,14 -17,16l0 0zm686 -213c5,2 11,9 14,13l47 47c2,3 5,5 7,7l40 41c-4,5 -8,9 -13,13 -2,2 -4,5 -6,7l-54 52c-3,2 -4,5 -7,7l-23 22c-2,2 -2,3 -4,4 -3,-1 -12,-11 -16,-15 -6,-6 -11,-11 -17,-16 -2,-2 -6,-7 -10,-4 -5,4 -2,9 0,11 3,3 6,5 9,8l8 8c3,3 5,5 8,8 3,3 13,14 17,15 5,0 8,-5 10,-7 6,-5 11,-10 17,-16l32 -31c3,-3 5,-6 8,-8l41 -40c22,-21 23,-12 -15,-51 -3,-3 -5,-5 -8,-8l-80 -81c-5,-4 -9,1 -11,3l-53 52c-1,1 -2,2 -4,4 -2,3 -5,5 -8,8 -6,5 -11,10 -16,16 -2,2 -7,5 -5,10 2,3 6,5 11,0 5,-5 11,-10 17,-15l32 -32c4,-5 30,-28 32,-32l0 0zm-311 375l28 28c5,6 10,11 16,17l8 8c5,5 21,23 24,24 -2,3 -50,51 -54,54 -4,4 -51,52 -54,54l-106 -107 24 -25c6,-6 15,-13 12,-19 -2,-4 -7,-4 -10,-1 -3,3 -5,6 -8,9l-16 16c-14,17 -22,18 -12,28 11,10 22,21 32,32 11,11 22,21 33,32 2,3 5,6 8,8 3,3 5,6 8,8l32 33c5,3 9,-2 11,-4l113 -113c4,-6 0,-8 -2,-11 -9,-9 -42,-43 -48,-49 -5,-4 -11,-11 -16,-16 -5,-6 -11,-11 -16,-17 -2,-2 -6,-7 -11,-4 -7,5 0,12 4,15l0 0zm-84 -267c-2,2 -6,6 -7,8l-27 28c-1,1 -2,2 -4,3l-23 24c-5,6 -10,11 -15,16 -2,3 -5,5 -7,8l-8 8c-9,10 -20,22 -19,43 -8,6 -20,6 -30,3 5,-18 13,-31 29,-46 7,-3 13,-6 19,-11 7,-7 14,-13 21,-21 7,-7 14,-13 21,-21 7,-7 13,-13 21,-21 7,-7 14,-14 21,-21 -2,-1 -2,-2 -3,-3l-12 -11c-3,-3 -12,-13 -15,-14 -5,-2 -9,1 -9,5 0,5 4,7 6,9l15 14c-6,7 -14,15 -21,21l-42 42c-6,7 -12,14 -23,19 -32,15 -69,-1 -95,-19 -2,-2 -4,-3 -6,-5 -2,-1 -5,-2 -7,0 -7,6 1,11 4,13 12,9 27,18 44,24 -8,0 -16,1 -25,4 -3,-4 -6,-7 -8,-10 -5,-5 -11,-11 -16,-18 -6,-8 -16,0 -10,7 1,2 2,2 3,4l19 21c1,1 2,2 3,4 4,4 8,9 13,13 5,4 9,9 15,13 20,16 45,33 77,14 7,-4 0,-8 4,-21 4,-16 24,-32 36,-45l7 -6c2,-3 4,-5 6,-7 13,-14 27,-27 40,-42l13 -13c6,-7 13,-11 9,-16l-27 -28c-3,-3 -4,-4 -6,-7 -2,-2 -4,-5 -9,-5 -5,1 -8,7 2,16 4,4 10,10 16,16l10 11 0 0zm-147 139c-2,-1 -3,-2 -5,-3 -4,-2 -8,-5 -12,-7 5,-10 12,-17 20,-23 -11,2 -19,8 -27,18 -5,-5 -11,-11 -17,-16 3,-6 12,-9 24,-11 2,0 3,1 5,1 15,3 31,2 44,-2 -17,12 -27,24 -32,43l0 0zm200 206c-4,-2 -13,-12 -18,-16l-13 -12c-1,-2 -2,-4 -4,-5 -12,-11 -23,-23 -35,-34 -2,-1 -3,-2 -4,-4l-29 -27c3,-7 5,-13 6,-19 2,10 7,19 13,27 6,6 78,78 83,83 5,-4 10,-10 15,-14 2,-2 14,-13 15,-14 1,-5 -2,-8 -5,-9 -5,0 -7,3 -9,6l-15 14c-3,-2 -56,-55 -63,-62 -7,-7 -14,-12 -19,-23 -14,-31 1,-71 20,-95 2,-3 9,-9 4,-14 -6,-6 -11,2 -13,5 -7,10 -14,21 -20,35 -16,12 -34,20 -52,22 0,-4 0,-7 0,-11 3,-17 10,-13 19,-16 20,-6 39,-22 50,-36 2,-2 7,-6 4,-11 -3,-5 -8,-2 -11,1 -3,3 -5,6 -9,9 -10,10 -23,22 -43,26 -8,2 -12,-1 -19,15 -8,18 -1,38 9,53 2,4 4,7 7,10 9,12 23,25 34,35 3,3 6,6 9,9l17 17c6,6 13,11 18,17l18 17c3,2 5,5 8,8 3,3 6,6 9,9 15,14 21,25 29,16l27 -26c2,-2 7,-6 9,-8 3,-4 0,-10 -5,-10 -4,0 -12,8 -14,11l-10 9c-1,1 -2,3 -4,4 -3,3 -6,5 -9,8l0 0zm-99 -125c-3,10 -6,17 -11,20 -5,-5 -11,-11 -17,-18 11,-6 19,-14 22,-25 -7,8 -16,15 -27,18 -4,-6 -7,-12 -9,-19 20,-1 35,-10 48,-25 -1,6 -3,12 -4,18 -3,11 -3,21 -2,31l0 0zm-244 -146c-7,-5 -13,-13 -20,-18l-38 -37c-6,-6 -12,-13 -19,-19 3,-5 38,-39 47,-48 4,-3 7,-6 10,-10l20 -19c2,1 14,14 18,18 2,2 4,5 8,4 3,0 6,-3 5,-6 0,-4 -3,-6 -5,-8 -4,-4 -8,-8 -13,-12 -15,-16 -13,-15 -28,1l-55 55c-3,3 -4,5 -7,7 -20,20 -22,15 5,40l63 61c7,6 8,9 16,1l37 -37c4,-4 8,-8 13,-13l18 -18c2,-2 5,-4 2,-8 -5,-10 -16,5 -21,10 -2,2 -4,4 -6,6l-50 50 0 0zm686 -151c4,3 76,75 77,77l-19 19c-7,6 -13,12 -19,18l-29 27c-2,2 -3,3 -5,5 -2,2 -2,3 -5,5 -3,-2 -15,-16 -18,-19 -2,-2 -5,-4 -9,-2 -9,6 5,16 8,19l9 9c4,4 8,11 15,5 3,-2 4,-4 6,-6l45 -43c4,-4 9,-8 13,-12l19 -18c2,-2 5,-4 3,-9 0,-3 -43,-45 -49,-51 -9,-8 -16,-16 -25,-25 -17,-17 -15,-18 -28,-6l-62 62c-2,3 -12,10 -5,15 3,3 6,1 9,-1 9,-9 66,-66 69,-69l0 0zm-326 346c-2,-2 -2,-2 -3,-3 -5,-4 -15,1 -7,10l44 45c4,5 23,22 25,26l-57 57c-6,6 -13,13 -19,18l-57 -56c-6,-6 -13,-13 -19,-19 3,-4 15,-15 19,-20 10,-10 1,-14 -3,-13 -4,1 -16,16 -19,19 -15,14 -12,15 -6,22l32 31c8,9 16,17 25,26 30,30 25,31 41,15 4,-4 8,-8 12,-13l25 -25c9,-9 17,-17 26,-25 17,-18 19,-16 7,-28l-50 -51c-5,-5 -8,-9 -13,-13 -1,-1 -2,-2 -3,-3l0 0zm-92 -613c6,-7 29,-29 37,-38 7,-6 12,-12 19,-19l14 -14c2,-2 3,-3 5,-5l38 38c8,8 32,32 38,38 -4,4 -8,8 -12,13 -4,5 -11,9 -10,14 0,3 3,6 7,5 4,0 15,-15 19,-18 15,-16 14,-14 -1,-28l-62 -61c-4,-5 -8,-9 -12,-13 -7,-6 -12,1 -15,5l-18 18c-2,3 -5,4 -7,6l-55 56c-2,4 1,7 3,9 6,6 19,21 24,25 10,8 17,17 25,25 4,4 8,8 12,12 5,6 9,12 14,10 3,-1 5,-4 4,-8 -1,-4 -9,-10 -12,-13 -10,-10 -18,-19 -28,-28 -6,-6 -18,-19 -26,-27l-1 -2 0 0zm296 765c4,-8 8,-14 13,-28 4,-11 7,-22 7,-34 1,-13 1,-28 1,-41 0,-11 -9,-9 -11,-7 -3,3 -2,14 -2,19 0,32 1,44 -11,70 -4,10 -10,19 -15,27l-17 24c6,-2 38,-18 46,-22 17,-8 39,-22 49,-36 3,-5 3,-8 3,-14l2 -101c0,-7 2,-28 -2,-31 -4,-4 -9,-1 -10,4 -1,8 -1,73 -1,84 0,6 0,46 -2,50 -1,3 -6,7 -8,9 -9,8 -30,22 -42,27l0 0zm-443 -840c-4,10 -7,13 -13,27 -3,11 -6,22 -7,34 -1,13 0,29 0,42 0,10 8,8 10,6 3,-3 2,-14 2,-19 0,-32 0,-44 12,-70 10,-23 20,-33 32,-51 -4,1 -19,9 -24,11 -7,4 -15,8 -23,11 -12,7 -30,18 -41,28 -6,6 -11,10 -11,23 0,11 0,22 0,33l-2 85c0,5 -1,12 3,14 4,3 9,0 9,-4 1,-5 1,-12 1,-17l1 -101c0,-12 -2,-17 9,-26 9,-7 31,-22 42,-26l0 0zm640 197c-6,-3 -15,-9 -28,-13 -30,-10 -42,-8 -73,-8 -12,0 -9,8 -7,10 6,9 50,-13 114,29 4,2 8,5 12,8 4,3 9,6 13,9 -6,-15 -31,-64 -41,-77 -7,-9 -17,-22 -29,-22l-100 -1c-7,0 -28,-3 -31,1 -3,4 -1,9 4,10 3,1 100,2 116,2 17,0 15,1 24,10 6,6 23,33 26,42l0 0zm-837 444c2,0 18,8 28,12 28,10 45,9 74,8 11,0 8,-8 6,-10 -3,-3 -14,-2 -19,-2 -40,0 -63,-6 -95,-27l-24 -17c1,6 18,39 21,46 9,16 28,52 48,53 11,0 22,0 33,0 22,1 44,1 66,2 7,0 29,2 32,-2 3,-4 1,-9 -4,-10 -4,-1 -12,0 -17,-1l-99 -1c-5,0 -11,0 -15,-2 -11,-6 -32,-41 -35,-49l0 0zm-31 -407c3,-1 6,-4 8,-6 21,-14 39,-27 64,-34 18,-5 34,-4 53,-4 19,0 38,0 56,0 7,0 23,3 21,-7 -1,-8 -15,-5 -22,-5 -19,0 -38,0 -57,0 -18,0 -35,-1 -53,4 -24,6 -26,11 -40,16 4,-11 22,-38 31,-45 7,-7 9,-5 20,-5l51 0c8,-1 9,-12 -2,-12l-51 0c-9,0 -14,-1 -21,4 -19,12 -40,55 -50,77 -3,5 -6,11 -8,17l0 0zm266 638c-4,-6 -8,-11 -12,-17 -4,-5 -7,-10 -11,-17 -22,-35 -21,-52 -21,-92 0,-18 0,-37 0,-56 0,-7 3,-23 -7,-21 -8,2 -5,17 -5,24 0,19 0,38 0,56 0,19 -1,36 4,53 5,21 9,24 16,39 -7,-2 -26,-14 -32,-18 -20,-15 -19,-17 -19,-33l0 -51c-1,-6 -12,-8 -12,3l0 51c0,10 -1,13 4,21 6,9 18,17 28,24 10,6 21,12 32,18 5,2 31,15 35,16l0 0zm426 -708l0 -98c0,-13 -3,-25 -7,-36 -5,-16 -10,-21 -14,-30 9,3 49,27 51,38 1,5 0,16 0,22 0,6 -1,41 1,44 2,5 11,5 11,-5l0 -61c0,-23 -61,-52 -84,-62 -5,-2 -9,-5 -14,-7 1,3 5,7 7,10 2,3 4,6 6,10 14,19 28,44 30,70 1,10 0,82 0,99 0,5 -1,11 4,13 5,3 9,-1 9,-7l0 0zm12 497l99 0c28,0 45,-11 66,-21 -6,14 -27,49 -38,51 -6,1 -61,-1 -66,1 -5,2 -5,11 5,11l61 0c24,0 51,-61 62,-84 2,-4 5,-10 7,-14 -4,2 -28,19 -40,26 -13,8 -32,15 -50,17 -10,1 -83,1 -99,1 -6,0 -11,-1 -13,3 -3,5 1,9 6,9zm38 144c12,-5 32,-23 42,-32 10,-9 26,-26 36,-37 4,-5 7,-9 11,-13l11 -14c-12,1 -21,3 -33,4 -12,0 -24,0 -36,0 -6,-1 -11,1 -9,8 1,5 8,4 14,4 12,0 23,0 35,0 -1,1 -5,6 -6,7 -13,13 -18,20 -32,33l-12 10c-3,2 -4,5 -8,6l0 -98c0,-5 1,-11 -2,-14 -5,-3 -9,0 -10,5 -1,4 -1,123 -1,131l0 0zm13 -749c7,3 53,50 57,57 -22,1 -44,0 -66,0 -11,0 -21,0 -32,0 -5,0 -12,-1 -15,2 -2,4 0,9 4,10 5,1 124,1 132,1 -2,-4 -8,-12 -10,-15 -8,-13 -13,-17 -22,-27 -4,-4 -8,-8 -12,-12 -4,-4 -9,-8 -12,-12 -4,-4 -9,-8 -13,-12l-27 -21c0,9 3,20 4,31 0,12 0,24 -1,36 0,6 1,11 7,11 6,-1 6,-7 6,-13 0,-12 0,-24 0,-36l0 0zm-593 755c0,-2 -3,-22 -4,-31 0,-12 0,-24 0,-36 0,-6 0,-12 -7,-11 -6,1 -5,7 -5,13l0 36c-6,-4 -17,-15 -22,-20l-25 -25c-2,-3 -9,-10 -10,-13 22,0 44,0 66,1 11,0 21,0 32,0 5,0 12,1 14,-3 4,-4 1,-9 -4,-10l-131 0c2,5 6,10 9,15l23 26c4,5 7,9 12,13 4,4 8,7 12,12 2,2 4,3 6,5 3,3 4,4 7,6l20 17c3,2 5,4 7,5l0 0zm-103 -680c18,-2 27,-5 46,-5l25 1c10,0 11,-12 -1,-12l-41 0c1,-2 5,-6 7,-8l6 -8c3,-2 5,-4 7,-7 2,-3 5,-5 8,-7 2,-3 4,-5 6,-7 3,-3 5,-4 8,-7l16 -13 0 102c0,6 0,12 7,11 6,-1 5,-10 5,-18l0 -118c-10,3 -32,24 -41,31l-47 50 -11 15 0 0zm709 288c-2,5 -16,17 -21,21l-41 43c-7,6 -13,14 -24,18 -31,14 -69,-1 -94,-19 -4,-3 -9,-9 -14,-5 -5,5 0,10 4,13 10,7 22,15 36,20 16,16 28,34 32,51 -6,3 -13,3 -20,2 -27,-4 2,-14 -43,-61 -3,-3 -5,-5 -8,-8 -10,-11 -19,0 -10,7 3,3 6,6 9,9 11,12 22,25 26,43 2,8 -1,13 15,20 36,14 68,-19 90,-42l60 -62c2,-3 5,-6 8,-9l17 -18c3,-3 6,-5 8,-9l9 -8c7,-7 -2,-13 -9,-20 -6,-6 -12,-11 -18,-17 -2,-3 -6,-7 -8,-9 -4,-3 -10,-1 -10,4 -1,5 11,15 15,19 3,3 6,6 9,9 3,2 7,6 9,9 -3,2 -21,21 -26,26 -1,2 -2,3 -4,5l-13 13c-1,2 -2,3 -4,4 -10,11 -24,27 -34,35 -1,2 -3,3 -4,5l-9 9c-6,-2 -12,-3 -18,-3 7,-3 13,-6 19,-11 12,-10 57,-57 73,-73 3,-4 9,-8 10,-11 -1,-2 -4,-4 -6,-7 -4,-3 -19,-20 -23,-21 -4,-2 -8,1 -8,5 -1,7 16,16 20,23l0 0zm-148 94c5,1 10,3 15,4 14,3 28,3 40,0 9,1 15,4 18,8l0 1c-4,5 -10,11 -17,16 -6,-9 -15,-16 -26,-17 9,6 16,13 20,23 -5,4 -11,8 -17,10 -4,-18 -17,-33 -33,-45l0 0zm-171 -154c3,-2 29,-29 30,-31 1,-4 -2,-8 -6,-8 -5,-1 -10,8 -16,14l-8 7c-3,-4 -6,-7 -10,-10 -1,-2 -3,-4 -5,-5 -14,-15 -28,-30 -41,-42 -9,-9 -18,-16 -24,-29 -12,-21 -8,-46 2,-67 4,-10 9,-18 15,-26 1,-2 3,-4 4,-6 4,-5 -2,-17 -13,-3 -11,15 -21,34 -25,54 -1,-10 -3,-20 -8,-31 8,-8 16,-16 24,-22 2,-1 2,-2 4,-3 2,-2 5,-4 7,-6 7,-6 0,-16 -8,-10 -16,13 -42,38 -54,53 -15,18 -33,47 -15,77 3,3 5,4 10,3 19,-1 31,13 43,24l27 27c8,7 10,9 17,16l24 23c3,2 5,4 7,7 3,2 4,4 7,6 2,3 4,4 7,7 2,2 5,5 9,2 3,-2 10,-10 13,-13 5,-5 9,-8 14,-13 3,-3 13,-10 13,-15 -1,-4 -4,-6 -8,-5 -2,0 -6,5 -8,6l-20 20c-3,2 -5,4 -7,6l-48 -45c-4,-5 -11,-10 -16,-15l-7 -8c-3,-3 -6,-5 -8,-8 -3,-2 -5,-5 -8,-7 -9,-8 -16,-16 -26,-21 -7,-4 -16,-6 -26,-6 -2,-8 -5,-11 -4,-21 16,2 33,10 49,22 3,6 6,11 11,17 4,5 15,16 20,21l62 64 0 0zm-98 -147c-2,13 -2,26 2,38 -13,-12 -27,-20 -45,-22 1,-5 4,-10 6,-14 1,-2 1,-3 2,-4 11,2 19,9 27,17 -3,-11 -11,-19 -22,-25 1,-1 3,-3 4,-4 3,-5 8,-10 12,-14 6,3 11,14 14,28l0 0zm98 -112c3,1 12,11 14,13l42 41c8,11 18,15 25,30 14,28 3,60 -12,85 -6,11 -18,21 -9,26 4,2 7,-1 9,-4 7,-8 13,-18 18,-29 18,-13 39,-25 57,-27 0,2 0,4 0,7 -3,17 -10,13 -18,16 -14,4 -34,16 -43,27 -5,6 -17,13 -12,20 5,9 15,-6 19,-10 10,-9 25,-22 43,-26 6,-2 10,-1 13,-4 9,-10 12,-27 9,-40 -3,-14 -16,-35 -26,-44 -3,-3 -6,-5 -9,-8 -1,-2 -2,-3 -4,-4 -7,-6 -23,-23 -31,-30l-65 -64c-2,-1 -3,-2 -5,-4 -3,-3 -6,-5 -9,-8 -7,-7 -9,-2 -20,8l-26 26c-6,5 2,15 9,7l22 -21c3,-3 6,-5 9,-8 2,1 7,6 9,8 2,1 3,2 5,4 1,1 2,3 4,4l44 42c1,2 3,3 4,4l22 22c3,3 6,5 9,8 2,2 3,3 5,4 1,2 2,3 3,4 -3,8 -5,15 -6,22 -2,-10 -6,-20 -13,-29 -8,-10 -19,-20 -28,-29 -10,-9 -53,-54 -58,-56 -2,3 -11,11 -14,14l-14 14c-2,4 1,8 4,8 5,1 12,-8 17,-12 2,-2 5,-4 7,-7l0 0zm89 157c7,-16 12,-33 11,-51 3,-12 8,-20 14,-23l1 1c4,4 3,2 8,9 2,3 5,5 7,8 -11,6 -20,14 -24,26 8,-8 18,-15 29,-18 4,6 7,12 8,19 -21,1 -39,13 -54,29l0 0zm-89 242c3,2 21,20 26,25 2,2 4,4 5,6l31 31c7,7 14,12 19,23 11,20 7,48 -2,68 -5,10 -10,17 -15,26 -3,3 -9,9 -5,14 6,5 10,-2 13,-5 11,-15 22,-34 26,-56 1,-2 1,-3 1,-4 1,13 2,24 7,36l-5 5c-1,2 -2,3 -3,4 -2,1 -3,2 -4,3l-14 13c-6,5 -14,8 -10,15 5,9 16,-5 24,-11 1,-1 2,-2 3,-3 14,-14 23,-21 37,-38 15,-17 33,-48 14,-77 -6,-9 -14,5 -38,-14l-96 -92c-3,-2 -5,-4 -7,-7 -9,-8 -12,0 -23,11 -5,4 -9,8 -14,13 -5,5 -12,10 -12,15 1,3 4,6 8,5 4,-1 31,-30 35,-32l19 19c2,1 3,2 4,3l72 69c10,9 22,20 43,19 5,9 6,16 5,23 -18,-1 -32,-8 -49,-21 -3,-8 -7,-15 -12,-20 -19,-20 -41,-42 -62,-63 -2,-2 -18,-19 -21,-21 -5,5 -17,18 -21,23 -3,2 -6,4 -7,8 -2,4 1,8 5,8 4,0 7,-4 9,-6l14 -15 0 0zm99 125c2,-12 1,-25 -3,-36 13,16 27,24 46,26 -1,3 -3,7 -5,10 -1,3 -2,5 -4,8 -10,-3 -18,-9 -25,-17 3,11 10,18 20,24 0,0 -1,1 -1,1 -2,3 -4,6 -6,8l-9 9c-6,-5 -10,-17 -13,-33l0 0zm-38 -205c1,3 1,2 3,4 5,4 23,24 26,26 4,2 8,-1 9,-5 0,-4 -4,-7 -6,-9 -4,-5 -9,-11 -15,-15 1,-2 1,-2 2,-3l33 -33c2,-2 4,-4 6,-5 12,-12 30,-32 44,-39 22,-10 47,-7 68,2 10,4 19,9 26,15 3,2 9,8 14,4 5,-6 -2,-11 -5,-13 -12,-9 -27,-18 -45,-22 10,0 19,-1 30,-4l1 2 22 25c5,6 16,-1 8,-9 -8,-10 -16,-19 -25,-29 -6,-6 -20,-20 -27,-25 -16,-13 -36,-25 -58,-20 -6,2 -16,6 -19,9 -5,5 5,19 -14,38l-19 21c-3,2 -5,4 -7,6 -6,6 -21,23 -26,27 -5,4 -10,10 -14,14 -4,5 -8,9 -13,14l-13 13c-10,10 -12,10 -4,20l24 24c2,2 4,4 6,7 2,2 4,5 9,4 3,-1 5,-5 3,-9l-12 -14c-3,-2 -5,-4 -7,-6 -2,-3 -4,-5 -6,-7 -3,-3 -6,-5 -7,-8l46 -47c2,-2 5,-5 7,-7 8,-8 20,-22 27,-28l12 -12c9,-10 19,-22 19,-43 7,-3 11,-6 21,-5 4,1 8,1 12,3 -5,16 -15,31 -29,45 -9,3 -17,7 -24,13 -8,5 -19,17 -26,25 -2,1 -3,3 -5,5l-47 46c-2,2 -3,3 -5,5l0 0zm154 -95c-2,0 -4,-1 -6,-1 -13,-2 -25,-2 -36,1 15,-11 26,-24 31,-41 5,3 11,6 16,10 -4,9 -11,16 -19,21 11,-1 19,-7 25,-15 7,5 12,11 17,16 -4,5 -15,8 -28,9l0 0zm-550 95l26 28c4,2 15,-2 4,-13 -1,-2 -2,-2 -4,-4 -1,-1 -2,-2 -3,-3 -2,-3 -5,-5 -6,-8 17,-19 42,-42 61,-61 7,-7 11,-13 23,-18 31,-14 68,-2 94,17 1,1 4,3 5,4 3,2 6,2 8,0 6,-6 -1,-11 -4,-13 -10,-7 -21,-14 -33,-19 -14,-16 -24,-35 -28,-52 4,-1 9,-1 13,-1 5,0 9,2 13,4 5,2 3,2 5,12 6,23 20,36 34,51 3,2 6,7 10,7 5,0 8,-6 5,-10 -3,-4 -15,-13 -25,-27 -23,-32 -4,-34 -23,-44 -8,-4 -19,-7 -29,-5 -27,4 -45,24 -62,41l-25 26c-2,2 -3,3 -4,5l-17 17c-2,2 -3,3 -5,4 -6,7 -28,31 -33,35 -6,5 -10,12 -17,17 -12,11 -5,14 1,21l25 26c3,3 8,6 11,1 4,-6 -1,-9 -4,-12l-25 -26 67 -70c6,-6 12,-11 17,-17 4,-4 8,-8 12,-12 7,3 15,4 22,4 -10,3 -19,7 -27,13 -7,6 -14,14 -21,20 -7,7 -13,14 -20,21l-41 41 0 0zm164 -92c-14,-5 -30,-7 -45,-5 -12,-2 -21,-5 -24,-11 5,-5 11,-11 17,-16 7,10 16,16 27,18 -9,-6 -16,-14 -20,-24 5,-4 11,-7 17,-10 4,18 14,35 28,48zm350 304c-31,4 -56,50 -19,83 15,14 37,10 60,10 12,0 24,0 35,0 5,0 12,1 15,-2 4,-4 1,-10 -4,-11 -5,0 -58,1 -68,1 -14,0 -20,1 -29,-6 -6,-4 -12,-12 -14,-21 -6,-21 10,-41 25,-42 9,-1 29,4 27,-8 0,-5 -5,-5 -11,-5 -5,0 -12,0 -17,1l0 0zm1 -517c-18,2 -32,17 -36,33 -3,10 -2,21 2,30 6,16 22,30 40,31 11,0 23,-1 34,-1 12,0 24,0 35,0 5,0 13,1 16,-2 3,-3 1,-9 -4,-10 -4,-1 -59,0 -68,0 -14,0 -20,1 -29,-6 -6,-4 -11,-11 -14,-21 -6,-20 9,-40 25,-42 4,-1 12,0 17,0 5,0 11,0 10,-7 0,-6 -6,-5 -11,-5 -5,0 -12,-1 -17,0l0 0zm-446 0c-4,1 -7,7 -3,11 3,3 11,1 16,1 12,0 23,0 35,0 11,0 23,-1 34,0 24,1 45,38 20,61 -17,16 -36,3 -42,11 -3,5 1,9 7,10 21,0 36,0 50,-20 11,-16 11,-36 0,-53 -4,-6 -10,-12 -17,-16 -10,-6 -18,-5 -30,-5 -9,0 -66,0 -70,0l0 0zm4 517c-5,1 -7,6 -4,10 3,3 11,2 16,2 11,0 23,0 34,0 12,0 24,-1 35,0 27,0 43,41 20,61 -8,7 -12,8 -27,8 -5,0 -12,-1 -14,2 -3,5 0,10 5,10 10,1 24,1 32,-3 24,-10 37,-42 20,-69 -4,-6 -10,-13 -18,-17 -10,-5 -17,-5 -30,-5 -11,0 -23,1 -35,1 -8,0 -27,-1 -34,0l0 0zm42 -483c-5,2 -4,7 -4,14 0,5 0,11 0,16 1,12 1,23 1,35 0,19 3,37 -21,49 -20,9 -40,-2 -46,-17 -4,-8 -1,-27 -4,-31 -3,-4 -9,-3 -11,2 0,2 0,14 0,17 0,38 46,60 80,30 17,-15 14,-33 14,-55 0,-12 0,-23 0,-35 0,-7 3,-30 -9,-25l0 0zm474 413c-19,3 -33,15 -40,29 -4,12 -2,51 -2,67 0,7 -2,28 2,32 4,3 10,1 10,-4 2,-12 -3,-75 1,-87 7,-25 45,-37 63,-11 12,17 -1,43 13,39 6,-1 5,-7 5,-13 0,-13 0,-19 -6,-30 -7,-12 -24,-26 -46,-22l0 0zm-29 -328l0 -12c0,-5 -1,-9 -6,-9 -8,-1 -6,11 -6,19l0 5c0,30 40,56 73,33 6,-4 11,-9 15,-16 5,-8 6,-14 6,-25 -1,-7 0,-74 -2,-77 -1,-4 -7,-5 -10,-2 -4,6 2,79 -2,92 -6,20 -38,35 -59,14 -6,-6 -9,-10 -9,-22zm-486 328c-19,2 -34,15 -40,29 -5,12 -2,51 -2,67 0,7 -2,28 2,32 4,3 10,1 10,-4 1,-5 0,-13 0,-18 0,-13 -2,-61 1,-69 6,-24 44,-37 63,-11 7,10 5,18 5,30 0,6 2,11 8,9 5,-1 4,-7 4,-13 0,-13 1,-20 -5,-30 -7,-12 -24,-26 -46,-22l0 0zm0 19c-13,2 -24,12 -25,26 -1,15 0,35 0,51 0,8 0,17 0,25 0,12 11,10 12,3 1,-4 0,-65 0,-77 0,-15 20,-20 30,-12 10,9 0,27 9,30 3,1 7,-1 8,-4 1,-4 0,-19 -2,-23 -3,-12 -16,-22 -32,-19zm516 0c-13,2 -25,12 -26,26 -1,15 0,35 0,51 0,8 0,17 0,25 1,12 11,10 13,3 0,-3 -1,-44 -1,-51 0,-9 0,-17 0,-26 1,-15 21,-20 30,-12 10,9 0,27 9,30 13,5 7,-25 7,-27 -4,-12 -17,-22 -32,-19l0 0zm-70 -449c-31,6 -29,51 -1,58 8,2 39,1 50,1 5,0 33,1 36,-1 3,-2 3,-7 1,-10 -4,-3 -18,-1 -24,-1l-50 0c-10,0 -15,0 -19,-7 -6,-9 -5,-21 4,-26 8,-4 18,0 23,-2 3,-2 9,-12 -7,-12 -5,0 -9,0 -13,0l0 0zm-1 517c-12,2 -23,13 -23,28 0,15 10,27 21,30 7,2 61,1 75,1 4,0 9,0 12,-1 2,-2 4,-6 2,-9 -3,-4 -17,-3 -23,-3 -9,0 -17,0 -26,1 -8,0 -17,0 -25,0 -10,0 -15,0 -20,-7 -6,-9 -7,-28 16,-28 3,0 9,1 12,-1 2,-1 4,-5 2,-8 -2,-4 -6,-3 -10,-3 -4,0 -9,-1 -13,0l0 0zm96 -500c-5,3 -3,11 -3,22l0 51c0,10 0,16 -5,20 -12,9 -30,4 -30,-11 0,-6 3,-21 -7,-18 -9,2 -10,44 21,46 15,1 28,-8 32,-19 2,-8 1,-60 1,-75 0,-3 0,-10 0,-12 -1,-3 -5,-6 -9,-4zm-517 0c-6,3 -4,15 -4,22l1 51c0,9 0,15 -6,20 -12,10 -29,4 -29,-11 0,-8 2,-20 -8,-18 -4,0 -4,3 -4,8 0,4 -1,9 0,13 1,13 12,24 26,25 15,1 27,-9 31,-19 3,-8 2,-60 1,-75 0,-3 1,-10 0,-12 -1,-3 -4,-6 -8,-4l0 0zm-29 -17c-6,2 -9,13 4,13 9,-1 17,-1 26,-1 7,0 46,0 50,0 13,2 18,23 8,32 -11,7 -30,-3 -29,9 1,5 4,6 8,6 15,0 28,0 36,-15 7,-15 1,-29 -8,-37 -10,-10 -28,-7 -44,-7l-51 0 0 0zm4 517c-7,1 -9,12 3,12 13,0 69,-1 76,0 11,1 21,20 8,31 -6,5 -13,3 -22,4 -9,0 -9,11 0,12 15,1 29,-1 37,-15 9,-18 -2,-44 -26,-44l-76 0 0 0zm283 -116c-5,2 -52,51 -56,55 -10,9 -15,22 -11,41 3,13 15,34 25,29 2,-1 4,-5 2,-9 -2,-2 -5,-3 -8,-6 -8,-12 -12,-31 -4,-42l42 -42c4,-5 9,-9 13,-14 2,-2 6,-4 5,-8 0,-4 -4,-6 -8,-4l0 0zm-302 -142c-4,2 -5,6 -3,10 1,2 46,45 49,48 8,9 16,19 36,19 17,0 31,-8 38,-17 7,-9 -2,-16 -7,-11 -3,3 -5,8 -16,13 -7,2 -15,4 -23,2 -9,-2 -12,-7 -17,-11l-48 -48c-2,-2 -4,-6 -9,-5zm305 -209c-4,1 -6,4 -4,9 1,3 13,7 16,26 1,7 0,16 -4,22 -3,4 -10,10 -13,14l-42 42c-2,2 -6,5 -5,8 0,4 3,7 7,6 4,-1 25,-23 29,-27 9,-10 18,-19 27,-28 5,-4 8,-8 11,-16 10,-28 -13,-59 -22,-56l0 0zm0 397c-4,2 -6,5 -4,9 1,2 4,3 7,7 4,4 7,11 9,19 1,8 0,16 -4,22 -3,4 -36,37 -41,42 -3,4 -19,18 -19,22 0,4 3,7 8,6 3,-1 49,-49 55,-55 12,-11 16,-24 12,-41 -2,-13 -14,-33 -23,-31zm-3 -444c-3,1 -49,48 -56,55 -11,11 -15,24 -11,41 2,13 15,34 24,30 3,-1 5,-5 3,-9 -2,-2 -5,-3 -7,-6 -9,-12 -13,-31 -5,-42 3,-4 47,-47 55,-56 2,-1 6,-4 5,-8 0,-4 -4,-7 -8,-5zm-224 237c-13,2 -31,11 -34,21 -1,4 1,8 4,8 5,1 7,-3 9,-5 8,-10 28,-15 41,-9 6,3 36,34 42,40l21 21c5,3 15,-2 5,-12l-49 -49c-4,-4 -8,-9 -15,-12 -7,-3 -15,-4 -24,-3l0 0zm319 20c-10,4 1,13 4,15 5,5 9,10 14,14 9,10 18,18 28,28 10,10 16,19 36,19 15,0 29,-6 38,-17 8,-9 -2,-15 -7,-10 -2,1 -3,4 -7,7 -8,6 -22,9 -32,7 -9,-2 -13,-7 -17,-11 -5,-5 -9,-9 -14,-14l-13 -14c-5,-5 -9,-9 -14,-14 -5,-5 -11,-13 -16,-10l0 0zm79 -20c-11,2 -22,6 -29,13 -1,2 -6,6 -6,8 -2,5 1,8 5,8 7,1 6,-10 26,-16 22,-5 29,7 38,15l48 48c5,3 15,-2 5,-12 -2,-2 -4,-4 -7,-7l-42 -41c-10,-11 -19,-18 -38,-16l0 0zm-187 -178c-3,1 -4,4 -3,7 1,4 3,4 6,6 3,3 8,10 7,17 -1,7 -6,10 -10,13l-48 48c-7,6 -1,14 6,11 1,-1 10,-9 12,-11l12 -12c4,-4 7,-7 12,-11 4,-4 7,-9 12,-13 6,-6 18,-14 16,-31 -1,-9 -7,-17 -13,-22 -3,-1 -6,-4 -9,-2l0 0zm120 183c-3,1 -4,3 -3,8 0,2 15,16 17,18 4,4 7,8 11,12l13 12c5,6 15,18 25,22 18,6 39,-13 36,-21 0,-3 -4,-5 -8,-4 -2,1 -3,4 -5,6 -2,2 -4,4 -7,5 -7,4 -13,3 -18,-1l-35 -36c-4,-4 -7,-8 -12,-12 -3,-3 -8,-11 -14,-9l0 0zm-92 -230c-3,1 -30,28 -36,35 -4,3 -9,8 -12,12 -7,7 -19,13 -17,30 1,12 14,27 21,26 3,0 5,-3 5,-7 -1,-4 -4,-4 -6,-6 -7,-6 -12,-18 -5,-25l43 -41c4,-4 7,-8 12,-12 7,-7 0,-13 -5,-12l0 0zm157 244c-12,3 -27,17 -20,24 6,5 11,-5 13,-7 18,-17 30,6 43,18 8,8 15,16 23,24l12 12c6,5 14,-3 8,-9 -7,-8 -15,-16 -23,-24 -2,-2 -4,-3 -6,-5 -2,-3 -4,-4 -6,-7 -13,-13 -25,-31 -44,-26l0 0zm-462 -14c-11,5 7,19 14,26 8,8 15,16 23,24 2,2 4,4 6,6 6,6 12,13 20,16 20,6 38,-13 36,-21 0,-3 -3,-5 -7,-4 -4,1 -5,7 -13,11 -6,4 -13,3 -18,-1 -11,-11 -26,-28 -35,-36 -9,-8 -19,-24 -26,-21l0 0zm278 214c-3,1 -5,3 -5,7 1,5 15,9 14,22 0,4 -1,6 -3,8 -1,2 -2,2 -3,3 -1,1 -2,3 -3,4l-24 23c-3,2 -4,4 -6,6l-18 18c-2,1 -5,3 -4,8 1,3 4,5 8,4 3,-1 21,-20 24,-24 9,-7 17,-15 24,-23 7,-7 19,-14 17,-31 -2,-13 -15,-27 -21,-25l0 0zm-212 -200c-12,3 -27,16 -22,23 2,2 6,3 9,1 1,-1 1,-2 2,-3 6,-8 18,-15 28,-4 2,2 4,3 6,6l35 36c4,3 8,9 12,12 6,5 13,-2 9,-8 -5,-7 -12,-13 -18,-18 -2,-2 -4,-4 -6,-7l-17 -18c-2,-2 -4,-3 -7,-6 -6,-6 -15,-18 -31,-14zm239 154c-4,2 -19,17 -24,23l-19 17c-2,2 -3,4 -5,6 -7,6 -19,15 -17,31 1,13 15,28 22,25 2,-1 5,-4 3,-8 -1,-4 -14,-9 -13,-22 1,-7 7,-10 10,-14l36 -35c4,-4 8,-8 12,-12 7,-6 1,-14 -5,-11l0 0zm-11 -271c-3,1 -5,2 -5,6 0,4 11,13 14,16l50 48c11,13 16,6 16,1 0,-3 -2,-5 -4,-6l-25 -24c-2,-2 -3,-3 -5,-5l-15 -14c-2,-2 -3,-4 -5,-6 -3,-3 -6,-6 -10,-9 -2,-2 -7,-8 -11,-7l0 0zm-107 204c-7,4 -2,9 1,12 4,3 7,6 10,10l55 53c5,5 17,-2 7,-11l-30 -29c-4,-3 -7,-6 -10,-9l-10 -10c-4,-4 -7,-6 -10,-10 -3,-2 -7,-9 -13,-6l0 0zm8 -156c-3,1 -9,6 -11,9 -9,10 -59,57 -60,58 -3,5 1,12 8,9 3,-1 16,-15 19,-19l51 -48c3,-5 -2,-12 -7,-9l0 0zm202 106c-4,1 -8,6 -11,9 -3,3 -7,6 -10,9 -7,7 -13,13 -20,20l-30 29c-4,5 1,11 7,10 2,-1 8,-8 10,-10 2,-1 3,-3 5,-4 2,-2 3,-3 5,-5 3,-4 7,-7 10,-10l40 -39c3,-4 -1,-11 -6,-9l0 0zm-117 -140c-8,4 1,11 1,12l50 48c8,7 16,19 22,16 2,-1 4,-3 4,-6 -1,-4 -6,-8 -9,-11 -2,-2 -3,-3 -5,-5 -4,-4 -7,-6 -11,-10l-40 -38c-5,-6 -7,-9 -12,-6zm128 153l-45 43c-2,2 -3,3 -5,5 -3,3 -17,16 -20,19 -3,5 2,12 7,9 2,0 32,-29 35,-33 2,-1 3,-3 5,-5l30 -29c5,-5 -1,-12 -7,-9l0 0zm-201 -106c-4,1 -15,13 -20,19 -7,6 -14,13 -20,19l-30 29c-3,5 1,12 7,9 3,-1 17,-16 20,-19l50 -48c3,-5 -1,-12 -7,-9zm-32 156c-6,2 -3,8 0,11l60 58c5,5 7,9 12,7 3,-1 4,-3 4,-6 0,-4 -10,-13 -14,-16 -3,-3 -6,-6 -10,-9 -1,-2 -3,-3 -4,-5 -2,-2 -4,-3 -6,-5 -3,-3 -6,-6 -10,-9l-10 -10c-3,-3 -7,-7 -10,-10 -2,-2 -6,-9 -12,-6l0 0zm-40 -237c-1,-5 -2,-9 -3,-13 12,4 28,12 33,20 -7,-3 -22,-7 -30,-7zm0 -29l3 -10c9,6 17,10 22,18 -7,-4 -18,-8 -25,-8l0 0zm15 -26l6 -7c4,7 6,13 6,21 -3,-5 -7,-11 -12,-14zm255 55c1,-5 2,-9 2,-13 -11,4 -27,12 -33,20 8,-3 22,-7 31,-7zm0 -29l-4 -10c-9,6 -16,10 -21,18 7,-4 18,-8 25,-8l0 0zm-15 -26l-6 -7c-5,7 -6,13 -7,21 3,-5 8,-11 13,-14l0 0zm12 389c1,4 2,8 2,13 -11,-5 -27,-12 -32,-21 7,3 22,8 30,8zm0 29l-4 9c-8,-6 -16,-10 -21,-18 7,4 18,8 25,9l0 0zm-15 25l-6 8c-5,-7 -6,-14 -7,-21 3,5 8,10 13,13zm-249 -52c-1,4 -2,9 -2,13 11,-4 27,-12 33,-20 -8,3 -23,7 -31,7zm0 29l4 9c9,-5 16,-9 21,-18 -7,5 -18,9 -25,9l0 0zm15 22l6 7c5,-7 6,-13 7,-21 -3,5 -8,11 -13,14zm288 -86c4,0 9,0 13,1 -5,-11 -15,-26 -24,-31 4,7 10,21 11,30l0 0zm35 -2l9 -4c-6,-8 -11,-15 -20,-19 5,6 10,17 11,23zm23 -17l7 -7c-8,-4 -14,-5 -22,-4 5,2 11,6 15,11zm-58 -248c5,0 9,0 14,-1 -6,11 -15,26 -24,31 4,-7 9,-21 10,-30zm33 4l9 4c-7,8 -12,15 -21,19 5,-6 10,-17 12,-23l0 0zm24 17l6 7c-7,4 -14,5 -21,4 5,-2 11,-6 15,-11zm-399 -24c-4,-1 -9,-1 -13,-1 5,11 15,26 24,30 -4,-7 -10,-21 -11,-29l0 0zm-32 3l-9 4c7,8 12,15 20,19 -5,-6 -10,-17 -11,-23l0 0zm-24 17l-7 7c8,4 14,5 22,5 -6,-3 -12,-7 -15,-12zm57 249c-5,1 -9,1 -14,1 6,-11 15,-26 24,-30 -4,7 -9,21 -10,29zm-32 -3l-9 -4c6,-9 11,-16 20,-20 -5,7 -10,17 -11,24zm-25 -18l-6 -6c7,-4 14,-5 22,-5 -6,3 -12,7 -16,11z"/>
  </g>
 </g>
</svg>
