<?xml version="1.0" encoding="UTF-8"?>
<!DOCTYPE svg PUBLIC "-//W3C//DTD SVG 1.1//EN" "http://www.w3.org/Graphics/SVG/1.1/DTD/svg11.dtd">
<!-- Creator: CorelDRAW 2018 (64-Bit) -->
<svg xmlns="http://www.w3.org/2000/svg" xml:space="preserve" width="120px" height="120px" version="1.1" shape-rendering="geometricPrecision" text-rendering="geometricPrecision" image-rendering="optimizeQuality" fill-rule="evenodd" clip-rule="evenodd"
viewBox="0 0 208 208"
 xmlns:xlink="http://www.w3.org/1999/xlink">
 <g id="Layer_x0020_1">
  <metadata id="CorelCorpID_0Corel-Layer"/>
  <polygon fill="#196D6D" points="0,208 208,208 208,0 0,0 "/>
  <path fill="#FEFEFE" d="M39 64c-18,2 -22,20 -22,35 0,6 0,12 1,18 0,5 2,11 4,15 4,6 9,11 17,12 0,0 8,0 9,0 0,0 1,-1 0,-2 0,0 -1,0 -1,0 -5,0 -9,0 -13,-2 -15,-6 -16,-27 -15,-42 0,-8 2,-17 6,-23 1,-2 3,-4 4,-5 5,-4 8,-4 16,-4l14 0c1,0 2,-2 -1,-2 -4,0 -16,0 -19,0zm26 84c-1,1 -1,3 -1,4l0 15c0,17 16,23 33,24 5,0 13,0 18,0 6,-1 11,-2 15,-4 7,-3 12,-9 14,-16 0,-3 0,-6 0,-9 0,0 0,-2 0,-2 0,0 -1,-1 -2,0 -1,0 1,7 -1,12 -2,5 -5,9 -9,11 -9,6 -20,6 -32,6 -9,0 -19,-1 -26,-7 -1,0 -1,-1 -2,-1 -2,-2 -3,-4 -5,-7 -1,-3 -1,-5 -1,-8 0,-1 0,-17 0,-17 0,-1 -1,-1 -1,-1zm95 -84c-1,0 -2,2 1,2 5,0 9,0 13,2 2,1 4,2 6,3 9,9 9,25 9,39 0,12 -4,22 -10,28 -5,3 -8,4 -15,4 -4,0 -7,0 -10,0 -2,0 -3,0 -5,0 -1,0 -2,2 1,2 3,0 6,0 9,0 6,0 11,0 17,-2 2,-1 4,-2 6,-4 1,-1 1,-1 2,-3 5,-7 7,-17 7,-26 0,-12 0,-23 -5,-33 -3,-6 -9,-11 -17,-12 0,0 -8,0 -9,0zm-61 -47c-10,0 -21,2 -29,9 -2,2 -5,7 -6,13 0,1 0,8 0,9 0,0 1,1 2,0 0,0 0,-1 0,-2 0,-5 0,-8 2,-12 1,-3 2,-5 4,-6 7,-7 19,-9 29,-9 6,0 12,0 18,1 11,2 20,6 22,16 1,3 1,5 1,9 0,3 0,6 0,9 0,1 0,4 0,5 0,1 2,2 2,-1 0,-4 0,-7 0,-10 0,-6 0,-11 -2,-17 -2,-4 -6,-7 -10,-9 -9,-5 -21,-6 -33,-5l0 0zm-14 25l19 -19c0,0 2,2 2,2l8 8c0,0 9,9 9,9 0,1 -1,1 -1,2l-4 4c-1,1 -2,1 -1,2 0,1 1,1 2,0l5 -6c2,-2 2,-2 1,-3 -1,-1 -2,-2 -3,-3 0,0 -1,-1 -1,-1l-15 -15c-2,-2 -2,-2 -5,1 0,0 -1,1 -1,1l-5 4c-1,2 -3,4 -5,6 -2,2 -7,7 -7,8 -1,1 0,2 1,3 1,1 1,1 2,1 1,1 2,2 3,3l3 3c1,2 3,4 5,6 1,1 1,1 2,1 1,0 1,-1 0,-2 -1,-1 -2,-2 -3,-3 -1,-1 -2,-2 -3,-3 0,-1 -1,-2 -2,-3 -1,-1 -2,-2 -3,-3l-3 -3 0 0zm-43 81l-9 -10c-2,-1 -3,-3 -5,-4l-2 -3c-1,0 -2,-2 -3,-2 1,-1 2,-2 3,-3 0,0 1,-1 2,-2 2,-2 3,-3 5,-5l7 -7c0,-1 2,-2 2,-3l6 6c1,0 1,1 2,1 1,0 1,-1 1,-2l-6 -6c-3,-2 -2,-3 -7,2l-10 11c0,0 -1,1 -1,1l-5 5c0,0 -1,0 -1,1 -1,1 0,2 2,3l4 5c1,0 1,1 1,1l13 12c0,1 0,1 1,1 0,1 1,0 2,0l4 -5c0,0 1,0 1,0l8 -8c0,-1 1,-1 1,-2 1,0 2,-1 1,-2 -1,-1 -3,2 -5,3 0,1 -1,1 -1,2 -1,0 -1,1 -2,1 -1,1 -2,2 -3,3 -1,1 -2,2 -3,3 0,0 -2,2 -3,3l0 0zm123 -39c1,1 2,2 3,3l8 8c1,1 1,1 2,1l7 8c-1,1 -2,1 -3,2 0,1 0,1 -1,1l-9 10c-1,0 -1,1 -2,1l-4 4c0,0 0,0 0,1 -1,-1 -3,-2 -3,-3 -1,-1 -2,-2 -3,-3 -1,0 -1,-1 -2,-1 -1,1 -1,2 0,2 0,1 1,1 1,2l2 1c0,1 1,1 1,2 1,0 3,2 3,2 1,0 2,-1 2,-1 1,-1 2,-2 3,-3l6 -5c1,-1 1,-1 1,-2l8 -7c4,-4 4,-2 -3,-9 0,-1 -1,-1 -1,-2l-15 -14c-1,-1 -1,0 -2,0l-9 10c0,0 -1,0 -1,0 0,1 -1,1 -1,2 -1,1 -2,2 -3,3 -1,0 -2,1 -1,2 0,0 1,1 2,0 1,-1 2,-2 3,-3l6 -6c0,-1 5,-5 5,-6l0 0zm-55 68l5 5c1,1 1,2 2,3l2 1c1,1 4,4 4,5 0,0 -9,9 -9,9 -1,1 -10,10 -10,10l-19 -19 4 -5c1,-1 3,-2 2,-3 0,-1 -1,-1 -2,0 0,0 0,1 -1,1l-3 3c-2,3 -4,3 -2,5 2,2 4,4 6,6 2,2 4,4 6,6 0,0 1,1 1,1 1,1 1,1 2,2l5 5c1,1 2,0 2,0l21 -21c0,-1 0,-1 -1,-1 -1,-2 -7,-8 -9,-9 0,-1 -2,-2 -2,-3 -1,-1 -2,-2 -3,-3 -1,-1 -1,-1 -2,-1 -1,1 0,2 1,3l0 0zm-16 -48c0,0 -1,1 -1,1l-5 5c0,0 0,1 0,1l-4 4c-1,1 -2,2 -3,3 -1,1 -1,1 -1,1l-2 2c-2,2 -3,4 -3,8 -2,1 -4,1 -6,0 1,-3 3,-5 6,-8 1,-1 2,-1 3,-2 1,-1 2,-3 4,-4 1,-1 2,-2 3,-4 2,-1 3,-2 4,-3 1,-2 3,-3 4,-4 0,0 0,0 -1,-1l-2 -2c0,0 -2,-2 -2,-2 -1,-1 -2,0 -2,1 0,0 1,1 1,1l3 3c-1,1 -3,2 -4,4l-7 7c-2,1 -3,3 -5,4 -5,2 -12,-1 -17,-4 0,0 0,0 -1,-1 0,0 -1,0 -1,0 -1,1 0,2 1,3 2,1 5,3 8,4 -2,0 -3,0 -5,1 0,-1 -1,-2 -1,-2 -1,-1 -2,-2 -3,-3 -1,-2 -3,0 -2,1 0,0 0,0 0,0l4 4c0,1 0,1 0,1 1,1 2,2 3,2 1,1 1,2 2,3 4,3 9,6 14,2 2,-1 0,-1 1,-4 1,-2 4,-5 7,-8l1 -1c0,0 0,-1 1,-1 2,-2 5,-5 7,-7l2 -3c1,-1 3,-2 2,-3l-5 -5c0,0 -1,-1 -1,-1 0,0 -1,-1 -1,-1 -1,0 -2,1 0,3 1,1 2,2 3,3l1 2 0 0zm-26 25c0,0 -1,-1 -1,-1 -1,0 -1,-1 -2,-1 1,-2 2,-3 4,-4 -2,0 -4,1 -5,3 -1,-1 -2,-2 -3,-3 0,-1 2,-1 4,-2 0,0 1,0 1,0 3,1 5,1 8,0 -3,2 -5,4 -6,8l0 0zm36 37c-1,-1 -2,-2 -3,-3l-3 -2c0,-1 0,-1 0,-1 -2,-2 -5,-4 -7,-6 0,-1 0,-1 0,-1l-5 -5c0,-1 0,-2 1,-3 0,2 1,3 2,5 1,1 14,14 15,14 1,0 2,-1 2,-2 1,0 3,-2 3,-3 0,0 0,-1 -1,-1 -1,0 -1,0 -1,1l-3 2c0,0 -10,-9 -11,-11 -2,-1 -3,-2 -4,-4 -2,-5 0,-12 4,-17 0,0 1,-2 1,-2 -1,-1 -2,0 -3,1 -1,1 -2,3 -3,6 -3,2 -7,3 -10,4 0,-1 0,-2 0,-2 1,-3 2,-3 4,-3 3,-1 7,-4 9,-7 0,0 1,-1 0,-2 0,-1 -1,0 -2,1 0,0 -1,1 -1,1 -2,2 -4,4 -8,5 -1,0 -2,0 -3,3 -2,3 -1,6 1,9 1,1 1,1 2,2 1,2 4,4 6,6 0,1 1,1 1,2l3 3c1,1 3,2 4,3l3 3c0,0 1,1 1,1 1,1 1,1 2,2 3,3 4,5 5,3l5 -5c0,0 1,-1 1,-1 1,-1 1,-2 0,-2 -1,0 -2,2 -3,2l-2 2c0,0 0,0 0,0 -1,1 -2,1 -2,2l0 0zm-18 -23c0,2 -1,3 -2,4 -1,-1 -2,-2 -3,-3 2,-1 4,-3 4,-5 -1,2 -3,3 -5,3 0,-1 -1,-2 -1,-3 3,0 6,-2 8,-4 0,1 0,2 -1,3 0,2 0,4 0,5l0 0zm-44 -26c-1,-1 -2,-2 -3,-3l-7 -7c-1,-1 -2,-2 -3,-3 0,-1 6,-7 8,-9 1,0 1,-1 2,-2l3 -3c1,0 3,3 4,3 0,1 0,1 1,1 1,0 1,-1 1,-1 0,-1 -1,-1 -1,-2 -1,0 -1,-1 -2,-2 -3,-3 -3,-2 -5,0l-10 10c-1,1 -1,1 -1,2 -4,3 -4,2 0,7l12 11c1,1 1,1 3,0l6 -7c1,0 2,-1 3,-2l3 -3c0,-1 1,-1 0,-2 -1,-2 -3,1 -4,2 0,0 0,1 -1,1l-9 9 0 0zm124 -27c0,0 13,14 13,14l-3 3c-1,1 -2,2 -3,3l-6 5c0,1 0,1 0,1 -1,1 -1,1 -1,1 -1,0 -3,-3 -4,-3 0,-1 -1,-1 -1,-1 -2,1 1,3 1,4l2 1c1,1 1,2 3,1 0,0 0,0 1,-1l8 -8c0,0 1,-1 2,-2l3 -3c1,0 1,-1 1,-2 0,0 -8,-8 -9,-9 -1,-1 -3,-3 -4,-4 -3,-3 -3,-3 -5,-1l-12 11c0,0 -2,2 0,3 0,0 1,0 1,-1 2,-1 12,-12 13,-12l0 0zm-59 62c0,0 0,0 -1,0 0,-1 -2,0 -1,1l8 8c1,1 4,4 5,5l-11 10c-1,1 -2,3 -3,4l-10 -11c-1,-1 -3,-2 -4,-3 1,-1 3,-3 4,-3 1,-2 0,-3 -1,-3 0,0 -3,3 -3,4 -3,2 -2,2 -1,4l5 5c2,2 3,3 5,5 5,5 4,5 7,2 1,0 2,-1 3,-2l4 -4c2,-2 3,-3 5,-5 3,-3 3,-3 1,-5l-9 -9c-1,-1 -2,-2 -2,-2 -1,-1 -1,-1 -1,-1l0 0zm-17 -110c2,-1 6,-5 7,-7 1,-1 2,-2 4,-3l2 -3c0,0 1,0 1,-1l7 7c1,2 6,6 7,7 -1,1 -2,2 -2,2 -1,1 -2,2 -2,3 0,0 0,1 1,1 1,0 3,-3 3,-4 3,-2 3,-2 0,-4l-11 -12c-1,0 -1,-1 -2,-2 -1,-1 -2,0 -3,1l-3 3c0,1 -1,1 -1,1l-10 11c-1,0 0,1 0,1 2,1 4,4 5,5 1,1 3,3 4,4 1,1 2,2 2,2 1,1 2,2 3,2 0,0 1,-1 1,-1 -1,-1 -2,-2 -3,-3 -1,-1 -3,-3 -5,-5 -1,-1 -3,-3 -4,-5l-1 0 0 0zm54 137c0,-1 1,-2 2,-5 1,-2 1,-4 1,-6 0,-2 0,-5 0,-7 0,-2 -1,-2 -1,-1 -1,0 -1,2 -1,3 0,6 0,8 -2,13 -1,1 -2,3 -3,4l-3 5c1,0 7,-3 9,-4 3,-2 7,-4 8,-7 1,0 1,-1 1,-2l0 -18c0,-2 1,-5 0,-6 -1,-1 -2,0 -2,1 0,1 0,13 0,15 0,1 0,8 0,9 -1,0 -1,1 -2,2 -1,1 -5,4 -7,4l0 0zm-80 -150c-1,1 -1,2 -2,4 -1,2 -1,4 -1,7 -1,2 -1,5 -1,7 1,2 2,2 2,1 1,0 1,-2 1,-3 0,-6 0,-8 2,-13 2,-4 4,-6 6,-9 -1,0 -4,2 -5,2 -1,1 -2,1 -4,2 -2,1 -5,3 -7,5 -1,1 -2,2 -2,4 0,2 0,4 0,6l0 15c0,1 -1,2 0,3 1,0 2,0 2,-1 0,-1 0,-2 0,-3l0 -18c0,-2 0,-3 2,-5 1,-1 5,-4 7,-4l0 0zm115 35c-1,-1 -3,-2 -5,-2 -5,-2 -8,-2 -13,-2 -2,0 -2,2 -1,2 1,2 9,-2 20,5 1,1 2,1 2,2 1,0 2,1 3,1 -1,-3 -6,-11 -8,-14 -1,-1 -3,-3 -5,-4l-18 0c-1,0 -5,0 -5,0 -1,1 -1,2 0,2 1,0 18,1 21,1 3,0 3,0 4,1 2,1 5,6 5,8l0 0zm-150 80c0,0 3,1 5,2 5,2 8,1 13,1 2,0 2,-1 1,-2 0,0 -2,0 -3,0 -7,0 -12,-1 -17,-5l-5 -3c1,1 4,7 4,8 2,3 5,10 9,10 2,0 4,0 6,0 4,0 8,0 12,0 1,0 5,1 5,0 1,-1 0,-2 0,-2 -1,0 -3,0 -3,0l-18 0c-1,0 -2,0 -3,0 -2,-2 -6,-8 -6,-9l0 0zm-6 -73c1,-1 1,-1 2,-1 3,-3 7,-5 11,-7 3,0 6,0 10,0 3,0 6,0 10,0 1,0 4,0 4,-2 -1,-1 -3,0 -5,0 -3,0 -6,0 -10,0 -3,0 -6,-1 -9,0 -5,1 -5,2 -7,3 0,-2 4,-7 5,-8 1,-1 2,-1 4,-1l9 0c1,0 1,-2 0,-2l-10 0c-1,0 -2,0 -3,1 -4,2 -8,9 -9,13 -1,1 -1,3 -2,4l0 0zm48 114c-1,-1 -2,-2 -2,-3 -1,-1 -2,-2 -2,-3 -4,-6 -4,-9 -4,-16 0,-4 0,-7 0,-10 0,-2 0,-5 -1,-4 -2,0 -1,3 -1,4 0,3 0,7 0,10 0,4 0,6 1,10 1,3 1,4 3,7 -2,-1 -5,-3 -6,-4 -4,-2 -4,-3 -4,-6l0 -9c0,-1 -2,-1 -2,1l0 9c0,2 0,2 1,4 1,1 3,3 5,4 2,1 4,2 6,3 1,1 5,3 6,3l0 0zm76 -127l0 -18c0,-2 0,-4 -1,-6 -1,-3 -2,-4 -2,-5 1,0 9,4 9,6 0,1 0,3 0,4 0,1 0,8 0,8 0,1 2,1 2,-1l0 -11c0,-4 -11,-9 -15,-11 -1,0 -2,-1 -3,-1 1,1 1,1 2,2 0,0 0,1 1,2 2,3 5,8 5,12 0,2 0,15 0,18 0,1 0,2 1,2 1,1 1,0 1,-1l0 0zm3 89l17 0c5,0 8,-2 12,-3 -1,2 -5,8 -7,9 -1,0 -11,-1 -11,0 -1,0 -1,2 0,2l11 0c5,0 10,-11 12,-15 0,-1 0,-2 1,-3 -1,1 -5,4 -7,5 -3,1 -6,3 -9,3 -2,0 -15,0 -18,0 -1,0 -2,0 -3,1 0,1 1,1 2,1zm7 26c2,-1 5,-4 7,-6 2,-1 5,-4 6,-6 1,-1 2,-2 2,-3l2 -2c-2,0 -3,0 -6,1 -2,0 -4,0 -6,0 -1,0 -2,0 -2,1 1,1 2,1 3,1 2,0 4,0 6,0 0,0 -1,1 -1,1 -2,2 -3,4 -6,6l-2 2c0,0 -1,1 -1,1l0 -18c0,-1 0,-2 -1,-2 0,-1 -1,0 -1,1 -1,0 0,22 0,23l0 0zm2 -134c1,0 9,9 10,10 -4,0 -8,0 -12,0 -2,0 -4,0 -6,0 -1,0 -2,0 -2,0 -1,1 0,2 0,2 1,0 23,0 24,0 0,-1 -1,-2 -2,-3 -1,-2 -2,-2 -4,-4 0,-1 -1,-2 -2,-3 0,0 -1,-1 -2,-2 -1,0 -2,-1 -2,-2l-5 -4c0,2 0,4 1,6 0,2 0,4 0,6 0,2 0,2 1,2 1,0 1,-1 1,-2 0,-2 0,-4 0,-6l0 0zm-107 135c0,0 0,-4 0,-5 -1,-3 0,-5 0,-7 0,-1 0,-2 -2,-2 -1,0 -1,2 -1,3l0 6c-1,-1 -3,-3 -4,-4l-4 -4c0,-1 -2,-2 -2,-2 4,0 8,0 12,0 2,0 4,0 6,0 1,0 2,0 2,-1 1,-1 0,-1 -1,-1l-23 -1c0,1 1,2 2,3l4 5c0,1 1,1 2,2 1,1 1,1 2,2 0,1 1,1 1,1 1,1 1,1 1,1l4 3c0,1 1,1 1,1l0 0zm-18 -122c3,0 5,-1 8,-1l5 0c1,0 1,-2 -1,-2l-7 0c0,0 1,-1 1,-1l1 -2c1,0 1,0 2,-1 0,0 0,-1 1,-1 0,-1 1,-1 1,-1 1,-1 1,-1 2,-2l2 -2 0 18c0,1 0,2 2,2 1,0 1,-2 1,-3l0 -21c-2,0 -6,4 -8,5l-8 9 -2 3 0 0zm127 52c0,1 -3,3 -4,4l-7 7c-1,1 -2,3 -4,4 -6,2 -13,-1 -17,-4 -1,0 -2,-1 -3,-1 -1,1 0,2 1,3 2,1 4,2 6,3 3,3 5,6 6,9 -1,1 -2,1 -3,1 -5,-1 0,-3 -8,-11 -1,-1 -1,-1 -2,-2 -1,-2 -3,0 -1,2 0,0 1,1 1,1 2,2 4,5 5,8 0,1 0,2 3,3 6,3 12,-3 16,-7l10 -11c1,-1 1,-1 2,-2l3 -3c1,-1 1,-1 2,-2l1 -1c1,-1 0,-2 -2,-4 -1,-1 -2,-2 -3,-3 0,0 -1,-1 -1,-1 -1,-1 -2,-1 -2,0 0,1 2,3 3,4 0,0 1,1 1,1 1,1 2,1 2,2 -1,0 -4,4 -5,5 0,0 0,0 0,1l-3 2c0,0 0,0 0,1 -2,1 -5,4 -7,6 0,0 0,0 0,1l-2 1c-1,0 -2,0 -3,0 1,-1 2,-1 3,-2 2,-2 11,-10 13,-13 1,-1 2,-2 2,-2 0,-1 -1,-1 -1,-1 -1,-1 -3,-4 -4,-4 -1,-1 -1,0 -2,1 0,1 3,2 4,4l0 0zm-26 17c0,0 1,0 2,0 3,1 5,1 7,0 2,1 3,1 4,2l0 0c-1,1 -2,2 -3,3 -2,-2 -3,-3 -5,-3 1,1 3,2 3,4 0,1 -1,1 -3,2 0,-3 -3,-6 -5,-8l0 0zm-31 -28c0,0 5,-5 5,-6 0,0 0,-1 -1,-1 -1,0 -2,2 -3,2l-1 2c-1,-1 -1,-1 -2,-2 0,0 0,-1 -1,-1 -2,-3 -5,-5 -7,-8 -2,-1 -3,-2 -5,-5 -2,-3 -1,-8 1,-12 1,-1 1,-3 2,-4 1,-1 1,-1 1,-1 1,-1 0,-3 -2,-1 -2,3 -4,6 -5,10 0,-2 0,-4 -1,-6 1,-1 3,-3 4,-4 1,0 1,0 1,0 0,-1 1,-1 1,-1 2,-2 0,-3 -1,-2 -3,2 -8,7 -10,9 -3,4 -6,9 -3,14 1,1 1,1 2,1 4,-1 6,2 8,4l5 5c1,1 2,1 3,3l4 4c1,0 1,1 1,1 1,0 1,1 2,1 0,1 0,1 1,1 0,1 1,1 1,1 1,-1 2,-2 3,-3 1,0 2,-1 2,-2 1,0 3,-2 3,-3 0,0 -1,-1 -2,-1 0,1 -1,1 -1,2l-4 3c0,1 -1,1 -1,1l-9 -8c0,-1 -2,-2 -2,-3l-2 -1c0,0 -1,-1 -1,-1 -1,-1 -1,-1 -2,-2 -1,-1 -2,-2 -4,-3 -2,-1 -3,-2 -5,-2 0,-1 -1,-2 -1,-3 3,0 6,2 9,4 1,1 1,2 2,3 1,1 3,3 4,4l11 11 0 0zm-18 -26c0,2 0,4 1,7 -3,-3 -5,-4 -9,-5 1,0 1,-1 2,-2 0,0 0,-1 0,-1 2,1 3,2 5,3 -1,-2 -2,-3 -4,-4 0,0 0,-1 0,-1 1,-1 2,-2 3,-2 1,0 2,2 2,5l0 0zm18 -20c0,0 2,1 2,2l8 7c1,2 3,3 4,6 3,5 1,10 -2,15 -1,2 -3,4 -1,4 0,1 1,0 1,0 1,-2 2,-3 3,-5 4,-3 7,-5 11,-5 0,0 0,1 0,1 -1,3 -2,2 -4,3 -2,1 -6,3 -7,5 -1,1 -3,2 -2,3 0,2 2,-1 3,-2 2,-1 4,-3 8,-4 1,0 2,0 2,-1 2,-2 2,-5 2,-7 -1,-3 -3,-6 -5,-8 -1,0 -1,-1 -2,-1 0,-1 0,-1 0,-1 -2,-1 -4,-4 -6,-6l-12 -11c0,0 0,0 0,-1 -1,0 -2,-1 -2,-1 -1,-1 -2,0 -4,1l-4 5c-1,1 0,3 1,1l4 -3c1,-1 1,-1 2,-2 0,0 1,1 1,1 1,1 1,1 1,1 1,0 1,1 1,1l8 7c0,1 0,1 1,1l4 4c0,1 1,1 1,2 1,0 1,0 1,0 0,1 0,1 1,1 -1,1 -1,3 -1,4 -1,-2 -1,-4 -3,-5 -1,-2 -3,-4 -5,-5 -2,-2 -9,-10 -10,-11 0,1 -2,2 -3,3l-2 3c-1,0 0,1 1,1 0,0 2,-1 2,-2 1,-1 1,-1 2,-1l0 0zm16 28c1,-3 2,-6 2,-9 0,-3 1,-4 2,-5l0 1c1,0 1,0 2,1 0,1 1,1 1,2 -2,1 -4,2 -4,4 1,-1 3,-2 5,-3 1,1 1,2 2,3 -4,1 -7,3 -10,6l0 0zm-16 43c0,0 4,4 4,5 1,0 1,0 1,1l6 5c1,2 2,3 3,4 2,4 2,9 0,13 -1,1 -2,3 -3,4 0,1 -1,2 -1,3 1,1 2,0 3,-1 2,-3 4,-6 4,-10 1,0 1,-1 1,-1 0,2 0,4 1,7l-1 1c0,0 0,0 -1,0 0,0 0,1 0,1l-3 2c-1,1 -2,2 -2,3 1,1 3,-1 5,-2 0,0 0,-1 0,-1 3,-2 4,-3 7,-6 3,-4 6,-9 2,-14 -1,-2 -2,1 -6,-3l-18 -16c0,-1 -1,-1 -1,-2 -2,-1 -2,0 -4,2 -1,1 -2,2 -3,3 0,0 -2,1 -2,2 0,1 1,1 2,1 0,0 5,-5 6,-6l3 4c1,0 1,0 1,1l13 12c2,2 4,3 8,3 1,2 1,3 1,4 -4,0 -6,-1 -9,-3 -1,-2 -1,-3 -2,-4 -4,-4 -8,-8 -11,-11 -1,-1 -4,-4 -4,-4 -1,1 -3,3 -4,4 0,0 -1,1 -1,1 -1,1 0,2 1,2 0,0 1,-1 1,-1l3 -3 0 0zm18 23c0,-3 0,-5 -1,-7 2,3 5,4 8,5 0,0 0,1 -1,2 0,0 0,1 0,1 -2,-1 -3,-2 -5,-3 1,2 2,3 4,4 0,0 0,0 0,1 -1,0 -1,1 -1,1l-2 1c-1,0 -2,-3 -2,-5l0 0zm-7 -37c0,0 0,0 0,0 1,1 4,5 5,5 1,0 1,0 2,-1 0,0 -1,-1 -1,-1 -1,-1 -2,-2 -3,-3 0,0 0,0 0,-1l6 -5c0,-1 1,-1 1,-1 2,-3 5,-6 8,-7 4,-2 9,-2 12,0 2,1 4,2 5,3 1,0 2,1 2,0 1,-1 0,-2 0,-2 -3,-2 -5,-3 -8,-4 1,0 3,0 5,-1l0 1 4 4c1,1 3,0 2,-1 -2,-2 -3,-4 -5,-6 -1,-1 -4,-3 -5,-4 -3,-2 -6,-5 -10,-4 -1,1 -3,1 -4,2 -1,1 1,3 -2,7l-4 3c0,1 -1,1 -1,2 -1,1 -4,4 -5,4 0,1 -1,2 -2,3 -1,1 -2,2 -2,2l-3 3c-2,2 -2,2 0,3l4 5c0,0 1,0 1,1 0,0 1,1 2,1 0,0 1,-1 0,-2l-2 -2c-1,-1 -1,-1 -1,-2 -1,0 -1,0 -1,-1 -1,0 -1,-1 -2,-1l9 -9c0,0 0,0 1,-1 1,-1 3,-4 5,-5l2 -2c2,-2 3,-4 3,-8 2,0 2,-1 4,-1 1,0 1,1 2,1 -1,3 -2,5 -5,8 -2,0 -3,1 -4,2 -2,1 -4,3 -5,5 0,0 -1,0 -1,1l-8 8c-1,0 -1,1 -1,1l0 0zm27 -17c0,0 0,0 -1,0 -2,-1 -4,-1 -6,0 3,-2 5,-5 5,-8 1,1 2,1 3,2 0,2 -2,3 -3,4 2,0 3,-1 4,-3 2,1 3,2 4,3 -1,1 -3,2 -6,2l0 0zm-98 17l4 5c1,0 3,0 1,-3 0,0 0,0 -1,0 0,0 0,-1 0,-1 -1,0 -1,-1 -1,-1 3,-4 7,-8 11,-11 1,-1 2,-2 4,-3 5,-3 12,-1 17,3 0,0 0,0 1,0 0,1 1,1 1,0 1,-1 0,-2 -1,-2 -1,-1 -3,-2 -6,-3 -2,-3 -4,-7 -5,-10 1,0 2,0 3,0 1,0 1,0 2,1 1,0 0,0 1,2 1,4 3,6 6,9 0,1 1,1 2,1 1,0 1,-1 1,-1 -1,-1 -3,-3 -5,-5 -4,-6 -1,-6 -4,-8 -1,-1 -3,-1 -5,-1 -5,1 -8,4 -11,7l-5 5c0,0 0,1 -1,1l-3 3c0,0 0,0 0,1 -1,1 -6,5 -6,6 -1,1 -2,2 -3,3 -3,2 -1,2 0,4l4 4c1,1 2,1 2,1 1,-1 0,-2 0,-2l-5 -5 12 -13c1,-1 2,-2 3,-3 1,-1 2,-1 2,-2 2,0 3,1 4,1 -2,0 -3,1 -5,2 -1,1 -2,3 -3,4 -2,1 -3,2 -4,3l-7 8 0 0zm29 -17c-2,-1 -5,-1 -8,-1 -2,0 -4,-1 -4,-2 1,0 2,-2 3,-3 1,2 3,3 5,4 -2,-1 -3,-3 -4,-5 1,0 2,-1 3,-1 1,3 3,6 5,8zm63 55c-6,1 -10,9 -3,15 2,2 6,2 10,2 2,0 5,0 7,0 1,0 2,0 2,-1 1,-1 0,-2 0,-2 -1,0 -11,0 -13,0 -2,0 -3,1 -5,-1 -1,0 -2,-2 -2,-3 -1,-4 1,-8 4,-8 2,0 5,1 5,-1 0,-1 -1,-1 -2,-1 -1,0 -2,0 -3,0l0 0zm0 -93c-3,0 -6,3 -6,6 -1,2 -1,4 0,5 1,3 4,6 7,6 2,0 4,0 6,0 2,0 5,0 7,0 0,0 2,0 2,-1 1,0 1,-1 0,-1 -1,-1 -11,0 -12,0 -3,0 -4,0 -6,-1 -1,-1 -2,-3 -2,-4 -1,-4 1,-7 4,-8 1,0 2,0 3,0 1,0 2,0 2,-1 0,-1 -1,-1 -2,-1 -1,0 -2,0 -3,0l0 0zm-80 0c-1,0 -1,1 0,2 0,0 2,0 2,0 2,0 5,0 7,0 2,0 4,0 6,0 4,0 8,7 3,11 -3,3 -6,1 -7,2 -1,1 0,2 1,2 4,0 7,0 9,-4 2,-3 2,-6 0,-9 -1,-1 -2,-2 -3,-3 -2,-1 -3,-1 -5,-1 -2,0 -12,0 -13,0l0 0zm1 93c-1,0 -2,1 -1,2 1,0 2,0 3,0 2,0 4,0 6,0 2,0 4,0 6,0 5,0 8,7 4,11 -2,1 -2,1 -5,1 -1,0 -2,0 -3,1 0,1 0,2 2,2 1,0 4,0 5,-1 4,-2 7,-7 4,-12 -1,-1 -2,-3 -3,-3 -2,-1 -3,-1 -6,-1 -2,0 -4,0 -6,0 -2,0 -5,0 -6,0l0 0zm7 -87c-1,1 0,1 0,3 0,1 0,2 0,3 0,2 0,4 0,6 0,3 0,6 -4,9 -4,1 -7,-1 -8,-3 -1,-2 0,-5 -1,-6 0,-1 -2,-1 -2,0 0,1 0,3 0,3 0,7 8,11 14,6 4,-3 3,-6 3,-10 0,-2 0,-4 0,-6 0,-2 0,-6 -2,-5l0 0zm85 74c-3,1 -6,3 -7,6 -1,2 0,9 0,11 0,2 0,6 0,6 1,1 2,0 2,0 0,-2 0,-14 0,-16 1,-5 8,-7 12,-2 2,3 -1,8 2,7 1,0 1,-1 1,-2 0,-3 0,-4 -1,-6 -2,-2 -5,-4 -9,-4l0 0zm-5 -59l0 -2c0,-1 0,-1 -1,-1 -1,-1 -1,2 -1,3l0 1c0,5 7,10 13,6 1,-1 2,-2 3,-3 1,-1 1,-3 1,-5 0,-1 0,-13 0,-13 -1,-1 -2,-1 -2,-1 -1,1 0,14 -1,17 -1,3 -6,6 -10,2 -1,-1 -2,-1 -2,-4zm-87 59c-4,1 -6,3 -7,6 -1,2 -1,9 -1,11 0,2 0,6 1,6 0,1 1,0 2,0 0,-1 0,-3 0,-4 0,-2 -1,-11 0,-12 1,-4 8,-7 11,-2 1,2 1,3 1,5 0,1 0,2 1,2 1,0 1,-1 1,-2 0,-3 0,-4 -1,-6 -1,-2 -4,-4 -8,-4l0 0zm0 4c-2,0 -4,2 -5,4 0,3 0,7 0,9 0,2 0,4 0,5 0,2 2,2 3,1 0,-1 0,-12 0,-14 0,-3 3,-4 5,-2 2,1 0,4 2,5 0,0 1,0 1,-1 0,-1 0,-3 0,-4 -1,-2 -3,-4 -6,-3zm93 0c-3,0 -5,2 -5,4 0,3 0,7 0,9 0,2 0,4 0,5 0,2 2,2 2,1 0,-1 0,-8 0,-10 0,-1 0,-3 0,-4 0,-3 4,-4 6,-2 1,1 0,4 1,5 3,1 1,-5 1,-5 0,-2 -3,-4 -5,-3l0 0zm-13 -81c-6,1 -5,9 0,11 1,0 7,0 9,0 1,0 6,0 6,-1 1,0 1,-1 0,-1 0,-1 -3,-1 -4,-1l-9 1c-2,0 -2,-1 -3,-2 -1,-1 -1,-3 1,-4 1,-1 3,0 4,-1 0,0 1,-2 -2,-2 0,0 -1,0 -2,0l0 0zm0 93c-2,0 -4,2 -4,5 0,3 1,5 3,5 2,1 11,0 14,0 1,0 2,1 2,0 1,0 1,-1 0,-1 0,-1 -3,-1 -4,-1 -1,0 -3,0 -4,0 -2,0 -3,0 -5,0 -2,0 -3,0 -3,-1 -2,-1 -2,-5 2,-5 1,0 2,0 3,0 0,0 0,-1 0,-2 0,0 -1,0 -2,0 -1,0 -1,0 -2,0l0 0zm17 -90c-1,1 -1,2 -1,4l1 9c0,2 0,3 -1,4 -3,2 -6,1 -6,-2 0,-1 1,-4 -1,-3 -2,0 -2,7 4,8 3,0 5,-2 5,-4 1,-1 1,-10 1,-13 0,0 0,-2 0,-2 -1,-1 -1,-1 -2,-1zm-93 0c-1,1 0,3 0,4l0 9c0,2 0,3 -1,4 -2,2 -6,1 -6,-2 0,-2 1,-4 -1,-3 -1,0 -1,0 -1,1 0,1 0,2 0,2 0,3 2,5 5,5 3,0 5,-2 6,-4 0,-1 0,-10 0,-13 0,0 0,-2 0,-2 0,-1 -1,-1 -2,-1l0 0zm-5 -3c-1,0 -2,2 1,2 1,0 3,0 4,0 2,0 9,0 9,0 3,1 4,4 2,6 -2,1 -5,-1 -5,2 0,0 0,1 1,1 3,0 5,0 6,-3 2,-3 1,-5 -1,-7 -2,-1 -5,-1 -8,-1l-9 0 0 0zm1 93c-2,0 -2,2 0,2 3,0 13,0 14,0 2,0 4,4 1,6 -1,1 -2,0 -3,0 -2,0 -2,2 0,2 2,1 5,0 6,-2 2,-3 0,-8 -5,-8l-13 0 0 0zm51 -21c-1,0 -10,9 -10,10 -2,2 -3,4 -2,7 0,3 2,6 4,6 0,-1 1,-1 0,-2 0,0 -1,-1 -1,-1 -2,-2 -2,-6 -1,-8l8 -7c1,-1 1,-2 2,-3 1,0 1,0 1,-1 0,-1 -1,-1 -1,-1l0 0zm-55 -25c0,0 -1,1 0,1 0,1 8,9 9,9 1,2 2,3 6,3 3,0 6,-1 7,-3 1,-1 0,-2 -1,-2 -1,1 -1,2 -3,3 -1,0 -3,0 -4,0 -2,0 -3,-1 -3,-2l-9 -9c0,0 -1,-1 -2,0zm55 -38c-1,0 -1,1 -1,2 1,0 3,1 3,4 0,2 0,3 0,4 -1,1 -2,2 -3,3l-7 7c-1,1 -1,1 -1,2 0,1 0,1 1,1 1,0 4,-4 5,-5 2,-2 3,-3 5,-5 1,-1 2,-1 2,-3 2,-5 -2,-10 -4,-10l0 0zm0 71c-1,1 -1,1 -1,2 0,0 1,1 2,1 0,1 1,2 1,4 0,1 0,3 0,4 -1,0 -7,6 -8,7 0,1 -3,3 -3,4 0,1 0,1 1,1 1,0 9,-9 10,-10 2,-2 3,-4 2,-7 0,-2 -2,-6 -4,-6zm0 -79c-1,0 -9,8 -10,9 -2,3 -3,5 -3,8 1,2 3,6 5,5 0,0 1,-1 0,-1 0,-1 -1,-1 -1,-1 -1,-3 -2,-6 -1,-8 1,-1 9,-8 10,-10 0,0 1,-1 1,-2 0,0 -1,-1 -1,0zm-41 42c-2,1 -5,2 -6,4 0,1 0,1 1,1 1,1 1,0 2,-1 1,-1 5,-2 7,-1 1,0 6,6 8,7l3 4c1,0 3,-1 1,-2l-9 -9c0,-1 -1,-2 -2,-2 -2,-1 -3,-1 -5,-1l0 0zm58 4c-2,1 0,2 0,3 1,0 2,1 3,2 2,2 3,3 5,5 2,2 3,3 6,3 3,0 5,-1 7,-3 2,-1 0,-2 -1,-1 0,0 -1,0 -1,1 -2,1 -4,2 -6,1 -2,0 -2,-1 -3,-2 -1,-1 -2,-2 -3,-2l-2 -3c-1,-1 -2,-2 -2,-2 -1,-1 -2,-3 -3,-2l0 0zm14 -4c-2,1 -4,1 -5,3 -1,0 -1,1 -2,1 0,1 1,1 1,1 2,1 1,-1 5,-2 4,-1 5,1 7,2l9 9c0,0 2,-1 0,-2 0,-1 0,-1 -1,-2l-7 -7c-2,-2 -4,-3 -7,-3l0 0zm-34 -32c0,0 -1,1 0,2 0,0 0,0 1,1 0,0 1,1 1,3 0,1 -1,1 -2,2l-8 8c-2,2 -1,3 1,3 0,-1 1,-2 2,-2l2 -3c1,0 1,-1 2,-2 1,0 1,-1 2,-2 1,-1 4,-2 3,-5 0,-2 -1,-3 -2,-4 -1,-1 -1,-1 -2,-1l0 0zm22 33c-1,0 -1,1 -1,1 0,1 3,3 3,4 1,1 2,1 2,2l3 2c1,1 2,3 4,4 3,1 7,-2 7,-4 -1,0 -1,-1 -2,0 0,0 0,0 -1,1 0,0 -1,0 -1,1 -1,0 -2,0 -3,-1l-7 -6c0,-1 -1,-2 -2,-2 0,-1 -1,-2 -2,-2l0 0zm-17 -41c0,0 -5,5 -6,6 -1,1 -2,1 -2,2 -2,2 -4,3 -3,6 0,2 2,4 3,4 1,0 1,0 1,-1 0,-1 0,-1 -1,-1 -1,-1 -2,-3 -1,-5l8 -7c1,-1 1,-1 2,-2 1,-1 0,-2 -1,-2l0 0zm29 44c-3,0 -5,3 -4,4 1,1 2,-1 2,-1 4,-3 6,1 8,3 1,1 3,3 4,4l2 2c1,1 3,0 2,-1 -2,-2 -3,-3 -4,-5 -1,0 -1,0 -2,-1 0,0 0,0 -1,-1 -2,-2 -4,-5 -7,-4l0 0zm-83 -3c-3,1 1,3 2,5 1,1 3,3 4,4 1,0 1,1 1,1 1,1 2,2 4,3 3,1 7,-2 6,-4 0,0 0,-1 -1,0 -1,0 -1,1 -2,2 -1,0 -3,0 -3,-1 -3,-2 -5,-5 -7,-6 -1,-2 -3,-4 -4,-4l0 0zm49 39c0,0 -1,0 0,1 0,1 2,1 2,4 0,0 0,1 -1,1 0,0 0,1 0,1 0,0 0,0 -1,0l-4 5c0,0 -1,0 -1,1l-3 3c-1,0 -1,0 -1,1 0,1 1,1 2,1 0,0 3,-4 4,-4 1,-2 3,-3 4,-4 1,-2 4,-3 3,-6 0,-2 -3,-5 -4,-4l0 0zm-38 -36c-2,0 -5,2 -4,4 1,0 1,0 2,0 0,0 0,0 0,-1 2,-1 4,-2 5,0 1,0 1,0 1,1l7 6c0,1 1,2 2,2 1,1 2,0 1,-1 0,-1 -2,-2 -3,-3 0,-1 0,-1 -1,-1l-3 -4c0,0 -1,0 -1,-1 -1,-1 -3,-3 -6,-2zm43 27c0,1 -3,3 -4,4l-3 3c-1,1 -1,1 -1,2 -2,1 -4,2 -3,5 0,2 2,5 4,5 0,-1 0,-1 0,-2 0,-1 -3,-1 -2,-4 0,-1 1,-2 1,-2l7 -7c1,0 1,-1 2,-2 1,-1 0,-2 -1,-2l0 0zm-2 -48c0,0 -1,0 -1,1 0,0 2,2 3,2l9 9c2,2 3,1 3,0 0,0 -1,-1 -1,-1l-4 -4c-1,0 -1,-1 -1,-1l-3 -3c0,0 -1,0 -1,0 -1,-1 -1,-2 -2,-2 0,-1 -1,-2 -2,-1l0 0zm-19 36c-1,1 0,2 0,2 1,1 1,2 2,2l10 10c1,1 3,-1 1,-2l-5 -5c-1,-1 -1,-2 -2,-2l-2 -2c0,-1 -1,-1 -2,-2 0,0 -1,-1 -2,-1l0 0zm1 -28c0,0 -1,1 -1,2 -2,2 -11,10 -11,10 -1,1 0,2 1,2 1,0 3,-3 4,-3l9 -9c0,-1 -1,-2 -2,-2l0 0zm37 19c-1,0 -2,1 -2,2 -1,0 -1,1 -2,2 -1,1 -2,2 -4,3l-5 5c-1,1 0,2 1,2 1,0 2,-1 2,-2 0,0 1,0 1,0 0,-1 1,-1 1,-1 0,-1 1,-2 2,-2l7 -7c0,-1 0,-2 -1,-2l0 0zm-21 -25c-2,1 0,2 0,2l9 9c1,1 3,3 4,3 0,0 1,-1 1,-1 -1,-1 -1,-2 -2,-2 0,-1 -1,-1 -1,-1 -1,-1 -1,-1 -2,-2l-7 -7c-1,-1 -1,-1 -2,-1zm23 28l-8 7c-1,1 -1,1 -1,1 -1,1 -3,3 -4,4 0,1 1,2 2,1 0,0 5,-5 6,-6 0,0 0,0 1,-1l5 -5c1,-1 0,-2 -1,-1l0 0zm-36 -20c-1,1 -3,3 -4,4 -1,1 -2,2 -4,3l-5 6c-1,0 0,2 1,1 1,0 3,-3 4,-3l9 -9c1,-1 0,-2 -1,-2zm-6 28c-1,1 -1,2 0,3l11 10c1,1 1,2 2,1 0,0 1,0 1,-1 0,-1 -2,-2 -3,-3 0,0 -1,-1 -2,-1 0,-1 0,-1 -1,-1 0,-1 0,-1 0,-1 -1,-1 -2,-1 -2,-2l-2 -2c-1,0 -1,-1 -2,-1 0,-1 -1,-2 -2,-2l0 0zm-7 -42c0,-1 -1,-2 -1,-2 2,0 5,2 6,3 -1,0 -4,-1 -5,-1zm0 -5l0 -2c2,1 3,2 4,3 -1,0 -3,-1 -4,-1l0 0zm2 -5l2 -1c0,1 1,2 1,4 -1,-1 -2,-2 -3,-3zm46 10c0,-1 1,-2 1,-2 -2,0 -5,2 -6,3 1,0 4,-1 5,-1zm0 -5l0 -2c-2,1 -3,2 -4,3 1,0 3,-1 4,-1l0 0zm-3 -5l-1 -1c0,1 -1,2 -1,4 1,-1 2,-2 2,-3l0 0zm3 70c0,1 0,1 0,2 -2,-1 -5,-2 -6,-3 2,0 4,1 6,1zm0 5l-1 2c-2,-1 -3,-2 -4,-3 1,0 3,1 5,1l0 0zm-3 5l-1 1c-1,-1 -1,-2 -1,-4 0,1 1,2 2,3zm-45 -10c0,1 0,2 0,3 2,-1 5,-2 6,-4 -2,1 -4,1 -6,1zm0 6l1 1c2,-1 3,-2 4,-3 -1,1 -3,1 -5,2l0 0zm3 3l1 2c1,-2 1,-3 1,-4 0,1 -1,2 -2,2zm52 -15c0,0 1,0 2,0 -1,-2 -3,-5 -4,-5 0,1 2,3 2,5l0 0zm6 0l2 -1c-2,-2 -2,-3 -4,-4 1,2 2,4 2,5zm4 -3l1 -2c-1,0 -2,0 -4,0 1,0 2,1 3,2zm-10 -45c1,0 1,0 2,0 -1,2 -3,5 -4,5 1,-1 2,-3 2,-5zm6 1l1 1c-1,1 -2,2 -3,3 0,-1 1,-3 2,-4l0 0zm4 3l1 1c-1,1 -2,1 -4,1 1,-1 2,-1 3,-2zm-72 -5c0,0 -1,0 -2,0 1,2 3,5 4,6 -1,-2 -2,-4 -2,-6l0 0zm-5 1l-2 1c1,1 2,3 4,3 -1,-1 -2,-3 -2,-4l0 0zm-5 3l-1 1c1,1 3,1 4,1 -1,0 -2,-1 -3,-2zm10 45c0,0 -1,0 -2,0 1,-2 3,-5 4,-5 0,1 -1,3 -2,5zm-5 -1l-2 0c1,-2 2,-3 4,-4 -1,1 -2,3 -2,4zm-5 -3l-1 -1c1,-1 3,-1 4,-1 -1,1 -2,1 -3,2z"/>
 </g>
</svg>
