<svg viewBox="0 0 35 34" fill="none" xmlns="http://www.w3.org/2000/svg">
    <path
        d="M17.0007 0C7.61248 0 0 7.61098 0 17C0 26.389 7.61173 34 17.0007 34C26.3905 34 34.0015 26.389 34.0015 17C34.0015 7.61098 26.3905 0 17.0007 0ZM17.0007 5.0832C20.1073 5.0832 22.6246 7.60127 22.6246 10.7063C22.6246 13.8121 20.1073 16.3294 17.0007 16.3294C13.8957 16.3294 11.3784 13.8121 11.3784 10.7063C11.3784 7.60127 13.8957 5.0832 17.0007 5.0832ZM16.997 29.5553C13.8987 29.5553 11.061 28.4269 8.87226 26.5593C8.33907 26.1045 8.03141 25.4376 8.03141 24.7379C8.03141 21.5888 10.5801 19.0685 13.7299 19.0685H20.2731C23.4236 19.0685 25.9626 21.5888 25.9626 24.7379C25.9626 25.4384 25.6564 26.1038 25.1225 26.5585C22.9345 28.4269 20.0961 29.5553 16.997 29.5553Z"
        fill="currentColor"/>
</svg>
