<?xml version="1.0" encoding="utf-8"?>
<!-- Generator: Adobe Illustrator 27.0.0, SVG Export Plug-In . SVG Version: 6.00 Build 0)  -->
<svg version="1.1" id="Layer_1" xmlns="http://www.w3.org/2000/svg" x="0px"
     y="0px"
     viewBox="0 0 80 80" style="enable-background:new 0 0 80 80;" xml:space="preserve">

    <g>
	<polyline class="st0" points="23.7,45.6 23.7,15.9 56.1,15.9 56.1,45.6 	"/>
        <path class="st0"
              d="M22.2,14.9v-3c0-0.7,0.5-1.2,1.2-1.2h33.9c0,0,0,0,0,0v5.2c0,0,0,0,0,0H23.2C22.6,15.9,22.2,15.5,22.2,14.9z"
        />
        <path class="st0" d="M33.1,21.5h2.6c0.2,0,0.3,0.1,0.3,0.3v4.7c0,0.2-0.1,0.3-0.3,0.3H31c-0.2,0-0.3-0.1-0.3-0.3v-4.7
		c0-0.2,0.1-0.3,0.3-0.3H33.1z"/>
        <path class="st0" d="M33.1,32h2.6c0.2,0,0.3,0.1,0.3,0.3V37c0,0.2-0.1,0.3-0.3,0.3H31c-0.2,0-0.3-0.1-0.3-0.3v-4.7
		c0-0.2,0.1-0.3,0.3-0.3H33.1z"/>
        <path class="st0" d="M46.5,21.5h2.6c0.2,0,0.3,0.1,0.3,0.3v4.7c0,0.2-0.1,0.3-0.3,0.3h-4.7c-0.2,0-0.3-0.1-0.3-0.3v-4.7
		c0-0.2,0.1-0.3,0.3-0.3H46.5z"/>
        <path class="st0" d="M46.5,32h2.6c0.2,0,0.3,0.1,0.3,0.3V37c0,0.2-0.1,0.3-0.3,0.3h-4.7c-0.2,0-0.3-0.1-0.3-0.3v-4.7
		c0-0.2,0.1-0.3,0.3-0.3H46.5z"/>
</g>
    <g>
	<ellipse class="st0" cx="24.7" cy="50" rx="4.5" ry="4.4"/>
        <path class="st0" d="M18.6,55.3h11.5c1.2,0,2.1,1,2.1,2.3v11.6c0,0.4-0.3,0.7-0.6,0.7H17.1c-0.4,0-0.6-0.3-0.6-0.7V57.6
		C16.5,56.3,17.4,55.3,18.6,55.3z"/>
</g>
    <g>
	<ellipse class="st0" cx="56.4" cy="50" rx="4.5" ry="4.4"/>
        <path class="st0" d="M50.3,55.3h11.5c1.2,0,2.1,1,2.1,2.3v11.6c0,0.4-0.3,0.7-0.6,0.7H48.9c-0.4,0-0.7-0.3-0.7-0.7V57.6
		C48.2,56.3,49.2,55.3,50.3,55.3z"/>
</g>
    <g>
	<ellipse class="st1" cx="57.3" cy="9.9" rx="3.3" ry="3.3"/>
        <line class="st2" x1="57.3" y1="8.2" x2="57.3" y2="12"/>
        <line class="st2" x1="59.2" y1="9.9" x2="55.4" y2="9.9"/>
</g>
    <g>
	<ellipse class="st0" cx="40.5" cy="46" rx="4.5" ry="4.4"/>
        <path class="st0" d="M34.5,51.3H46c1.2,0,2.1,1,2.1,2.3v11.6c0,0.4-0.3,0.7-0.6,0.7H33c-0.4,0-0.7-0.3-0.7-0.7V53.6
		C32.4,52.3,33.3,51.3,34.5,51.3z"/>
</g>
</svg>
