<?xml version="1.0" encoding="UTF-8"?>
<svg xmlns="http://www.w3.org/2000/svg" width="24px" height="24px"
     viewBox="0 0 24 24" version="1.1">
    <g id="surface1">
        <path style=" stroke:none;fill-rule:nonzero;fill:currentColor;fill-opacity:1;"
              d="M 23.5 7 C 23.777344 7 24 7.222656 24 7.5 L 24 8.011719 C 24 8.804688 23.074219 9 22.382812 9 L 21.296875 7 Z M 22.058594 10.507812 C 22.699219 11.691406 23.003906 12.757812 23.003906 14.171875 C 23.003906 15.542969 22.609375 16.703125 22 18.152344 L 22 20 C 22 20.550781 21.550781 21 21 21 L 19.5 21 C 18.949219 21 18.5 20.550781 18.5 20 L 18.5 19 L 5.5 19 L 5.5 20 C 5.5 20.550781 5.050781 21 4.5 21 L 3 21 C 2.449219 21 2 20.550781 2 20 L 2 18.152344 C 1.390625 16.703125 0.996094 15.542969 0.996094 14.171875 C 0.996094 12.757812 1.300781 11.691406 1.941406 10.507812 C 2.769531 8.96875 3.792969 7.054688 4.871094 5.253906 C 5.699219 3.871094 6.132812 3.546875 7.148438 3.363281 C 8.679688 3.089844 10.066406 3 12 3 C 13.933594 3 15.320312 3.089844 16.851562 3.363281 C 17.867188 3.546875 18.300781 3.871094 19.128906 5.253906 C 20.207031 7.054688 21.230469 8.96875 22.058594 10.507812 Z M 6 13.5 C 6 12.671875 5.328125 12 4.5 12 C 3.671875 12 3 12.671875 3 13.5 C 3 14.328125 3.671875 15 4.5 15 C 5.328125 15 6 14.328125 6 13.5 Z M 16 14.5 C 16 14.222656 15.777344 14 15.5 14 L 8.5 14 C 8.222656 14 8 14.222656 8 14.5 C 8 14.777344 8.222656 15 8.5 15 L 15.5 15 C 15.777344 15 16 14.777344 16 14.5 Z M 18.941406 8.972656 C 18.941406 8.972656 18.199219 7.148438 17.308594 5.832031 C 17.109375 5.53125 16.796875 5.328125 16.441406 5.265625 C 14.929688 4.992188 13.605469 4.90625 12 4.90625 C 10.394531 4.90625 9.070312 4.992188 7.558594 5.265625 C 7.203125 5.328125 6.890625 5.53125 6.691406 5.832031 C 5.800781 7.144531 5.058594 8.972656 5.058594 8.972656 C 6.699219 9.285156 9.367188 9.46875 12 9.46875 C 14.632812 9.46875 17.300781 9.285156 18.941406 8.972656 Z M 21 13.5 C 21 12.671875 20.328125 12 19.5 12 C 18.671875 12 18 12.671875 18 13.5 C 18 14.328125 18.671875 15 19.5 15 C 20.328125 15 21 14.328125 21 13.5 Z M 2.703125 7 L 0.5 7 C 0.222656 7 0 7.222656 0 7.5 L 0 8.011719 C 0 8.804688 0.925781 9 1.617188 9 Z M 2.703125 7 "/>
    </g>
</svg>
