<?xml version="1.0" encoding="UTF-8"?>
<svg xmlns="http://www.w3.org/2000/svg" width="24px" height="24px"
     viewBox="0 0 24 24" version="1.1">
    <g id="surface1">
        <path style="stroke:none;fill-rule:nonzero;fill:currentColor;fill-opacity:1;"
              d="M 24 18.75 C 24 17.753906 23.605469 16.800781 22.902344 16.097656 C 22.199219 15.394531 21.246094 15 20.25 15 C 17.171875 15 12.828125 15 9.75 15 C 8.753906 15 7.800781 15.394531 7.097656 16.097656 C 6.394531 16.800781 6 17.753906 6 18.75 C 6 21.21875 6 22.5 6 22.5 L 24 22.5 C 24 22.5 24 21.21875 24 18.75 Z M 4.5 19.5 L 0 19.5 C 0 19.5 0 18.21875 0 15.75 C 0 14.753906 0.394531 13.800781 1.097656 13.097656 C 1.800781 12.394531 2.753906 12 3.75 12 L 9.804688 12 C 10.132812 12.5625 10.546875 13.070312 11.03125 13.5 L 9.75 13.5 C 6.851562 13.5 4.5 15.851562 4.5 18.75 Z M 15 4.5 C 17.484375 4.5 19.5 6.515625 19.5 9 C 19.5 11.484375 17.484375 13.5 15 13.5 C 12.515625 13.5 10.5 11.484375 10.5 9 C 10.5 6.515625 12.515625 4.5 15 4.5 Z M 9.1875 10.496094 C 9.125 10.5 9.0625 10.5 9 10.5 C 6.515625 10.5 4.5 8.484375 4.5 6 C 4.5 3.515625 6.515625 1.5 9 1.5 C 10.539062 1.5 11.898438 2.273438 12.710938 3.453125 C 10.53125 4.355469 9 6.5 9 9 C 9 9.515625 9.066406 10.019531 9.1875 10.496094 Z M 9.1875 10.496094 "/>
    </g>
</svg>
