<svg viewBox="0 0 121 105" fill="none" xmlns="http://www.w3.org/2000/svg">
    <path fill-rule="evenodd" clip-rule="evenodd"
          d="M60.1695 70.3581C60.9634 70.8905 61.9021 71.7 62.655 72.3697L83.5432 90.064C83.9921 90.4422 84.3372 90.7361 84.7426 91.1119L95.58 100.317C98.4444 102.964 98.9801 102.723 95.4111 102.731C71.1059 102.784 46.7982 102.731 22.493 102.731C22.6619 102.006 22.756 101.921 23.3183 101.495L35.0751 91.5263C35.1017 91.4998 35.1427 91.4637 35.1716 91.4372C35.6591 90.9867 35.9004 90.8036 36.3903 90.4085L41.3517 86.1903C43.929 83.7789 48.6805 80.1918 51.4725 77.5828L60.1695 70.3581ZM20.0557 100.861C19.9592 100.442 19.8699 100.43 19.8699 99.9242V45.285C19.8699 43.8853 21.5711 45.5837 23.0046 46.6461L27.8212 50.2572C28.1011 50.4644 27.7585 50.209 28.0311 50.421L29.216 51.2979C32.785 53.7407 37.6113 57.7975 41.0139 60.1029L47.7514 65.1667C48.2485 65.569 48.4729 65.6075 48.97 66.0074C49.3513 66.3182 49.6288 66.5495 50.0198 66.8337L54.5372 70.1823C55.138 70.6617 55.1091 70.5991 55.1091 71.6687C54.5323 71.8228 53.4078 72.9262 52.8914 73.3839L45.3937 79.7461C45.3648 79.7726 45.3214 79.8088 45.2924 79.8329L33.7189 89.6111C33.69 89.6376 33.649 89.6738 33.62 89.7003L27.4423 94.9471C27.2251 95.1495 27.0562 95.3109 26.8511 95.4795L21.3443 100.088C20.7676 100.567 20.9027 100.791 20.0557 100.861ZM65.044 71.1074C65.044 70.4208 68.5165 68.1587 69.2067 67.5926C69.699 67.1903 69.8221 67.171 70.3192 66.8313C70.686 66.5808 71.0214 66.3013 71.3737 66.0123L100.095 44.5358C100.312 44.9886 100.471 45.3548 100.471 46.0318V99.9242C100.471 100.495 100.29 100.681 100.095 101.047L94.7089 96.5082C94.2624 96.1131 94.0187 95.9613 93.5843 95.5735C93.1331 95.1736 92.8749 95.0314 92.455 94.6412L81.9361 85.682C81.9071 85.6555 81.8685 85.617 81.8395 85.5905L77.6431 82.107C77.5659 82.0419 77.4404 81.9311 77.3463 81.8444C77.3173 81.8179 77.2763 81.7794 77.2497 81.7529L67.03 73.0539C67.0035 73.0274 66.9625 72.9888 66.9359 72.9623C66.0648 72.1529 65.044 71.6759 65.044 71.1074ZM97.4719 43.2252C97.3175 43.8034 94.6896 46.1787 94.2238 45.9258L94.6582 43.0566L97.4719 43.2252ZM22.8694 43.2252C23.8636 42.8398 25.2536 42.9964 26.243 43.2252C26.4626 44.172 26.4288 44.6731 26.4288 45.8463C25.5142 45.6487 24.368 44.6225 22.8694 43.2252ZM22.493 40.6066C22.575 39.8646 25.2367 37.4243 25.8665 37.4243C26.6846 37.4243 26.4288 38.2169 26.4288 40.0453C26.4288 41.3703 22.756 40.7536 22.493 40.6066ZM97.2837 40.7921C94.0066 40.7921 94.9212 41.033 93.7219 40.2308C93.7677 39.6864 93.5675 37.5616 94.038 37.4508C94.996 37.2267 96.1785 38.7974 97.0424 39.537C97.8773 40.1778 97.4743 40.7921 97.2837 40.7921ZM28.7889 38.7589L28.8661 15.3431C28.8661 14.4783 28.3617 12.7245 29.6166 12.7245H90.7223C91.1615 12.7245 91.4728 13.0353 91.4728 13.4737V47.7181C91.4728 48.3252 88.6808 50.2572 88.0606 50.674C87.3777 51.1365 86.9072 51.5581 86.2508 52.0471C85.896 52.3121 85.7513 52.4566 85.4207 52.7144L80.8936 56.0557C77.783 58.1781 72.7854 62.1096 69.6218 64.4512L67.7854 65.7979C67.7564 65.8244 67.7154 65.8629 67.6864 65.887C67.6575 65.9111 67.6189 65.952 67.5875 65.9761C67.5585 66.0002 67.5199 66.0412 67.4885 66.0653C67.1845 66.311 66.9576 66.4122 66.5957 66.6675C63.0725 69.1536 63.3572 70.0498 61.4388 68.3418C60.9079 67.8672 60.7438 67.7492 60.1695 67.3661C59.5951 67.7492 59.4335 67.8672 58.9001 68.3418C57.0951 69.951 57.194 69.144 55.3335 67.8889C54.6289 67.4119 54.0352 66.841 53.4126 66.4387L46.6486 61.4038C46.2987 61.1436 46.0381 60.9509 45.6954 60.669C45.2031 60.2619 45.2104 60.3366 44.6939 59.9849L40.4178 56.7688C40.3889 56.7447 40.3503 56.7062 40.3189 56.6797L34.0881 52.0471C33.4076 51.5364 32.8381 51.1606 32.1311 50.633C29.6938 48.8094 28.9626 48.1903 28.7865 47.6651C28.6368 47.2098 28.8033 39.3057 28.7889 38.7589ZM34.8652 7.67276L41.4265 7.57881C41.7523 7.57881 41.5979 7.67276 42.1746 7.67276H85.8502C86.3932 7.67276 87.537 7.309 87.537 8.41956C87.537 9.35186 87.7783 10.4793 86.2242 10.4793H33.7407C32.6185 10.4793 32.8019 8.98809 32.8019 8.41956C32.8019 7.15241 34.6866 7.67276 34.8652 7.67276ZM37.1142 2.99443C37.1142 2.56321 37.2445 2.43312 37.6765 2.43312H82.6624C83.688 2.43312 83.1089 4.37962 83.0389 5.23964H37.3025C37.2156 4.21821 37.1142 4.72893 37.1142 2.99443ZM34.4911 5.23964C29.5442 5.23964 30.5529 4.66147 30.5529 9.91798C29.6142 10.7298 29.6648 10.4431 26.9911 10.4793L26.4698 11.0815C26.2527 11.6573 26.646 29.7853 26.4312 32.9339C26.3781 33.6855 26.2888 33.8806 25.8738 34.2516C25.5094 34.5768 25.2874 34.7358 24.8868 35.1357L19.9592 39.3852C17.1937 42.1677 17.6208 39.9875 17.6208 46.2197V97.679C17.6208 103.22 18.0407 102.757 15.3718 102.733C10.4441 102.69 5.49233 102.731 0.562264 102.731C0.118244 103.396 0 103.027 0 104.041C0 104.477 0.499522 104.978 0.936302 104.978H108.343C109.229 104.978 109.094 104.068 109.094 103.48C109.094 102.581 108.131 102.714 107.226 102.726C106.345 102.738 105.467 102.726 104.588 102.738C103.447 102.755 102.935 102.923 102.747 101.955L102.73 42.8422C102.747 41.0427 102.629 41.5751 100.652 39.6767L94.8706 34.5937C94.5737 34.3624 94.4241 34.3263 94.1852 33.9697C94.0935 33.8324 93.7219 33.0519 93.7219 32.9339L93.7919 12.3487C93.8039 11.043 94.1273 11.6428 93.3479 10.4793C91.4077 10.4793 91.024 10.7443 89.786 9.91798C89.786 8.37861 89.8922 6.67783 89.5978 5.42755C86.9796 4.81806 85.6861 5.98885 85.481 4.29771C85.1793 1.80677 86.2508 0 84.3492 0H35.9897C33.6924 0 35.6736 2.77761 34.4911 5.23964Z"
          fill="currentColor"/>
    <path fill-rule="evenodd" clip-rule="evenodd"
          d="M7.49609 36.4896C8.29002 36.9087 8.29243 37.1328 9.05499 37.552C9.67034 37.8892 10.1747 38.1494 10.708 38.5228L12.3176 39.537C12.8726 39.9369 13.3335 40.2501 14.0574 40.4187C14.68 40.0019 14.9841 39.3949 15.182 38.5469L12.7737 37.022C12.3851 36.7666 12.3079 36.7955 11.9097 36.5763L10.2809 35.579C9.64621 35.1333 9.44833 34.89 8.4324 34.8057C8.1211 35.3935 7.81946 35.8777 7.49609 36.4896Z"
          fill="currentColor"/>
    <path fill-rule="evenodd" clip-rule="evenodd"
          d="M6.74609 43.6015C6.74609 44.1556 7.29147 45.2854 7.68481 45.2854C8.58009 45.2854 8.91069 45.1289 9.55741 44.9096C10.1317 44.7145 10.6747 44.6278 11.3866 44.4905C11.9344 44.3845 14.806 43.8424 14.806 43.2257C14.806 40.542 12.7597 41.8429 11.9199 42.0284L8.25914 42.8644C7.79823 42.9511 6.74609 43.086 6.74609 43.6015Z"
          fill="currentColor"/>
    <path fill-rule="evenodd" clip-rule="evenodd"
          d="M14.4336 31.4378L15.7681 36.8412C16.0842 37.9711 15.7536 38.3613 17.0591 38.3613C19.1079 38.3613 17.8289 36.0511 17.6986 35.4753C17.5369 34.7574 17.5779 34.2515 17.3849 33.5433C16.8033 31.4233 16.8371 29.7418 15.0127 30.703C14.7714 30.8307 14.4336 31.1535 14.4336 31.4378Z"
          fill="currentColor"/>
    <path fill-rule="evenodd" clip-rule="evenodd"
          d="M112.277 103.668C112.277 104.426 112.683 104.937 113.354 104.942L119.123 105C119.734 105.005 120.337 104.701 120.337 103.668C120.337 103.232 119.978 102.863 119.401 102.73H113.59C112.958 102.73 112.277 103.063 112.277 103.668Z"
          fill="currentColor"/>
    <path
        d="M67.1488 35.5374C67.6308 36.0194 67.6308 36.8006 67.1488 37.2823L58.8717 45.5597C58.3898 46.0414 57.6087 46.0414 57.1268 45.5597L53.1866 41.6192C52.7046 41.1375 52.7046 40.3562 53.1866 39.8745C53.6683 39.3926 54.4495 39.3926 54.9312 39.8745L57.9991 42.9424L65.4039 35.5374C65.8858 35.0557 66.6671 35.0557 67.1488 35.5374ZM75.9604 40.5485C75.9604 49.2779 68.8959 56.3412 60.1677 56.3412C51.4383 56.3412 44.375 49.2767 44.375 40.5485C44.375 31.8191 51.4395 24.7559 60.1677 24.7559C68.8971 24.7559 75.9604 31.8203 75.9604 40.5485ZM73.4928 40.5485C73.4928 33.1831 67.5322 27.2235 60.1677 27.2235C52.8022 27.2235 46.8426 33.184 46.8426 40.5485C46.8426 47.914 52.8032 53.8736 60.1677 53.8736C67.5332 53.8736 73.4928 47.913 73.4928 40.5485Z"
        fill="currentColor"/>
</svg>
