<svg width="34" height="34" viewBox="0 0 34 34" fill="none" xmlns="http://www.w3.org/2000/svg">
<path d="M33.0867 14.7884C33.0859 14.7876 33.0851 14.7868 33.0844 14.786L19.2136 0.917236C18.6224 0.325806 17.8363 0 17.0002 0C16.1641 0 15.378 0.325546 14.7865 0.916977L0.923072 14.7788C0.918402 14.7834 0.913733 14.7884 0.909063 14.793C-0.30505 16.014 -0.302975 17.9951 0.91503 19.2129C1.4715 19.7696 2.20645 20.092 2.99225 20.1258C3.02416 20.1289 3.05633 20.1304 3.08876 20.1304H3.6416V30.337C3.6416 32.3567 5.28506 34 7.30547 34H12.7321C13.2821 34 13.7283 33.5541 13.7283 33.0039V25.002C13.7283 24.0803 14.4781 23.3306 15.3998 23.3306H18.6006C19.5224 23.3306 20.2721 24.0803 20.2721 25.002V33.0039C20.2721 33.5541 20.718 34 21.2683 34H26.695C28.7154 34 30.3588 32.3567 30.3588 30.337V20.1304H30.8715C31.7073 20.1304 32.4934 19.8049 33.0851 19.2135C34.3044 17.9935 34.305 16.0091 33.0867 14.7884Z" fill="#FAFDFF"/>
</svg>
