<svg width="31" height="28" viewBox="0 0 31 28" fill="none" xmlns="http://www.w3.org/2000/svg">
    <path
        d="M14.0002 25.9C13.9564 25.7833 13.9413 25.6842 13.9561 25.604C13.9709 25.5243 13.92 25.4582 13.8031 25.4074C13.6863 25.3565 13.628 25.3161 13.628 25.2873C13.628 25.2582 13.5442 25.2362 13.3764 25.2218C13.2086 25.2072 13.1248 25.1997 13.1248 25.1997H12.8406H12.6H6.29991C5.33743 25.1997 4.51339 24.8573 3.82788 24.1714C3.14253 23.486 2.79989 22.6622 2.79989 21.6999V6.29961C2.79989 5.33712 3.14245 4.51339 3.82788 3.82796C4.51339 3.14245 5.33743 2.79958 6.29991 2.79958H13.2999C13.4895 2.79958 13.6386 2.75253 13.7483 2.65753C13.8575 2.56275 13.9302 2.42047 13.9669 2.23091C14.0033 2.04136 14.0253 1.87019 14.0327 1.71703C14.0399 1.56402 14.0364 1.37064 14.0216 1.13733C14.0072 0.904103 13.9999 0.758297 13.9999 0.699684C13.9999 0.510129 13.9305 0.346394 13.7921 0.207561C13.6535 0.0693401 13.4895 0 13.3 0H6.29991C4.56465 0 3.08069 0.616169 1.84828 1.84843C0.616169 3.08069 0 4.56442 0 6.29984V21.6998C0 23.435 0.616169 24.9192 1.84828 26.151C3.08069 27.3838 4.56465 28 6.29991 28H13.3002C13.4898 28 13.639 27.9523 13.7486 27.8579C13.8578 27.763 13.9305 27.6209 13.9672 27.4311C14.0036 27.2418 14.0256 27.0698 14.033 26.9172C14.0402 26.7641 14.0367 26.5711 14.022 26.3378C14.0073 26.1042 14.0002 25.9585 14.0002 25.9Z"
        fill="currentColor"/>
    <path
        d="M29.6694 13.4454L19.8197 3.21552C19.5905 2.97762 19.3189 2.85828 19.005 2.85828C18.6912 2.85828 18.4195 2.97762 18.19 3.21552C17.9607 3.45375 17.8461 3.73611 17.8461 4.06187V9.4776H9.73458C9.42053 9.4776 9.14904 9.59695 8.91966 9.83485C8.69028 10.0731 8.57568 10.3552 8.57568 10.6812V17.9023C8.57568 18.2282 8.69028 18.5103 8.91966 18.7484C9.14929 18.9862 9.42072 19.1059 9.73458 19.1059H17.8461V24.5215C17.8461 24.8472 17.9607 25.1296 18.1901 25.3677C18.4195 25.6059 18.6912 25.7252 19.0051 25.7252C19.3189 25.7252 19.5905 25.6059 19.8198 25.3677L29.6694 15.1382C29.8988 14.8998 30.0134 14.618 30.0134 14.292C30.0134 13.9661 29.8988 13.6837 29.6694 13.4454Z"
        fill="currentColor"/>
</svg>
