<svg viewBox="0 0 34 34" fill="none" xmlns="http://www.w3.org/2000/svg">
    <path
        d="M21.2498 18.4164C20.4664 18.4164 19.8332 19.0512 19.8332 19.833V25.4998C19.8332 26.2803 19.1985 26.9163 18.4164 26.9163H14.1664V5.66653C14.1664 4.4567 13.3958 3.37579 12.2371 2.97347L11.8176 2.83313H18.4164C19.1985 2.83313 19.8332 3.46918 19.8332 4.24996V8.49992C19.8332 9.28174 20.4664 9.91649 21.2498 9.91649C22.0332 9.91649 22.6664 9.28174 22.6664 8.49992V4.24996C22.6664 1.90683 20.7595 0 18.4164 0H3.18747C3.13352 0 3.08838 0.024124 3.03598 0.0311276C2.96776 0.0254209 2.90265 0 2.83339 0C1.27079 0 0 1.27053 0 2.83313V28.3329C0 29.5427 0.770669 30.6236 1.92939 31.026L10.455 33.8679C10.744 33.9571 11.0314 33.9997 11.3333 33.9997C12.8959 33.9997 14.1664 32.7289 14.1664 31.1663V29.7497H18.4164C20.7595 29.7497 22.6664 27.8429 22.6664 25.4998V19.833C22.6664 19.0512 22.0332 18.4164 21.2498 18.4164Z"
        fill="currentColor"/>
    <path
        d="M33.5847 13.1639L27.918 7.49737C27.513 7.0922 26.9037 6.97028 26.374 7.18973C25.8456 7.40944 25.4999 7.92642 25.4999 8.49891V12.7489H19.8333C19.0512 12.7489 18.4165 13.3834 18.4165 14.1654C18.4165 14.9475 19.0512 15.582 19.8333 15.582H25.4999V19.832C25.4999 20.4045 25.8456 20.9214 26.374 21.1411C26.9037 21.3606 27.513 21.2387 27.918 20.8338L33.5847 15.167C34.1386 14.6132 34.1386 13.7177 33.5847 13.1639Z"
        fill="currentColor"/>
</svg>
