<svg width="30" height="20" viewBox="0 0 30 20" fill="none" xmlns="http://www.w3.org/2000/svg">
    <path fill-rule="evenodd" clip-rule="evenodd"
          d="M15.5103 20C16.1984 20 16.536 19.9642 17.2012 19.8752C18.7984 19.6613 20.6586 19.4919 22.289 19.289L24.4663 19.0454C25.3154 18.9349 26.0651 18.1688 26.0651 17.3924V9.22946H20.8066C19.9344 9.22946 19.1456 8.71818 18.737 8.2359C18.3956 7.83299 16.4175 3.93712 16.0778 3.25838L15.6265 2.38644C15.5558 2.26844 15.6283 2.31845 15.5103 2.27585V20Z"
          fill="currentColor"/>
    <path fill-rule="evenodd" clip-rule="evenodd"
          d="M9.19326 9.2293H3.89697V17.1655C3.89697 18.1333 4.55593 18.8396 5.34329 19.0085L8.32216 19.3585C9.27068 19.4399 10.2766 19.606 11.2705 19.701C12.3192 19.8012 13.4267 19.9999 14.4518 19.9999V2.31348C14.3244 2.39869 13.7583 3.54674 13.6448 3.77478C13.5498 3.96539 13.4711 4.08506 13.3794 4.26549C13.2876 4.4461 13.2128 4.59995 13.1278 4.76991C13.04 4.94543 12.9484 5.09585 12.8625 5.26071L11.8164 7.27673C11.6257 7.65768 11.5118 7.90674 11.2588 8.23129C10.8879 8.707 10.0278 9.2293 9.19344 9.2293H9.19326Z"
          fill="currentColor"/>
    <path fill-rule="evenodd" clip-rule="evenodd"
          d="M20.7321 8.13351H29.5089C29.7833 8.13351 30.0007 7.9352 30.0007 7.7934C30.0007 7.33649 29.8414 7.24396 29.5396 6.74232C29.4503 6.59394 29.3804 6.49196 29.2892 6.35007L26.759 2.26404C26.4877 1.80658 26.2855 1.55326 25.7518 1.26724C25.3213 1.03652 24.0723 0.928242 23.4972 0.874058C22.0485 0.737718 20.2488 0.412707 18.7992 0.276275L17.008 0.062688C16.6321 0.0104491 15.9298 -0.135153 15.9015 0.3902C15.8866 0.66853 17.2726 3.14627 17.5542 3.71191L19.2823 7.04974C19.5129 7.46126 19.5826 7.63807 20.066 7.92974C20.222 8.02394 20.4992 8.1336 20.7319 8.1336L20.7321 8.13351Z"
          fill="currentColor"/>
    <path fill-rule="evenodd" clip-rule="evenodd"
          d="M0 7.67994C0 7.99346 0.263507 8.13342 0.453951 8.13342H9.23071C9.67474 8.13342 10.1273 7.82934 10.3573 7.59602C10.6044 7.3452 11.3743 5.77822 11.5385 5.45024L12.6952 3.24241C12.9494 2.81838 13.5138 1.5879 13.834 1.01651C13.9304 0.84442 14.0605 0.680201 14.0863 0.445033C14.1636 -0.25908 12.9186 0.0664865 12.4201 0.133174L5.36063 1.01725C4.91335 1.07625 4.57883 1.09024 4.25273 1.27095C3.51488 1.67987 3.42865 1.99164 2.99612 2.66102L0.958063 5.95365C0.787461 6.24013 0.620845 6.48798 0.446626 6.76548C0.304489 6.99194 9.27188e-05 7.42106 9.27188e-05 7.67984L0 7.67994Z"
          fill="currentColor"/>
</svg>
