<svg width="25" height="25" viewBox="0 0 30 30" fill="none" xmlns="http://www.w3.org/2000/svg">
    <path fill-rule="evenodd" clip-rule="evenodd"
          d="M22.9356 22.7504C22.9288 22.8356 23.1022 23.9647 22.3308 23.9647H18.2325C17.5455 23.9647 17.6464 23.0926 17.6472 22.7342C17.6481 22.171 17.7091 18.3409 17.6095 18.0847C17.5374 17.8997 17.3018 17.6953 17.0619 17.6953H12.9636C12.7246 17.6953 12.5127 17.8879 12.4347 18.0448C12.2647 18.3862 12.4932 23.1296 12.3317 23.5669C12.2562 23.7709 12.0558 23.9651 11.7926 23.9651H7.69428C7.29928 23.9651 7.12551 23.6254 7.12594 23.2356L7.13229 16.9615C7.13314 16.2366 7.07932 16.2286 7.54806 15.7599L14.3537 8.9505C15.1229 8.17345 15.3327 8.61203 16.11 9.38993L21.9939 15.2785C22.8962 16.1972 22.9403 16.0648 22.9153 16.9314L22.9356 22.7504ZM6.58133 15.1758C6.11259 15.1758 5.96298 14.8789 5.71759 14.6337C4.73857 13.6539 4.95938 13.7227 6.21515 12.4659L14.2067 4.46804C14.9233 3.7508 15.0653 3.71601 15.7875 4.43877L24.394 13.0521C25.0649 13.7231 25.1348 13.8054 24.3355 14.6049C23.4582 15.4825 23.4399 15.379 22.3448 14.2825L19.2713 11.2066C18.5741 10.5088 17.9193 9.85353 17.2221 9.15579C14.6207 6.55233 15.4103 6.54555 12.8899 9.06799L7.73793 14.224C7.51712 14.445 6.90725 15.1762 6.58175 15.1762L6.58133 15.1758ZM0.444878 18.6216C2.19143 25.7143 8.28974 29.9996 15.4217 29.9996C23.1166 29.9996 29.9998 23.1168 29.9998 15.4099C29.9998 7.20553 23.184 0.483536 15.4217 0C11.8468 0 8.73178 0.855943 5.90322 3.07172C1.13782 6.80513 -0.998644 12.7607 0.444455 18.6221L0.444878 18.6216Z"
          fill="currentColor"/>
</svg>
