<svg width="24" height="24" viewBox="0 0 31 33" fill="none" xmlns="http://www.w3.org/2000/svg">
    <path d="M10.447 29.5315C11.3496 31.572 13.3922 33 15.7631 33C18.1341 33 20.1766 31.572 21.0792 29.5315H10.447Z"
          fill="grey"/>
    <path
        d="M29.8419 27.2748H1.68417C1.15147 27.2748 0.663513 26.9156 0.552714 26.3945C0.443043 25.8785 0.678181 25.3693 1.15523 25.1489C1.26843 25.0755 2.12053 24.4797 2.9736 22.677C4.54036 19.3666 4.86922 14.7033 4.86922 11.3742C4.86922 5.36751 9.75605 0.480835 15.7627 0.480835C21.7551 0.480835 26.6329 5.34396 26.6561 11.331C26.6566 11.3453 26.6569 11.3598 26.6569 11.3742C26.6569 14.7033 26.9857 19.3666 28.5525 22.677C29.4056 24.4797 30.2576 25.0756 30.3709 25.1489C30.8479 25.3693 31.0831 25.8785 30.9734 26.3945C30.8626 26.9155 30.3747 27.2748 29.8419 27.2748ZM30.3835 25.1569H30.3843H30.3835Z"
        fill="grey"/>
</svg>
