<svg width="25" height="25" viewBox="0 0 31 33" fill="none" xmlns="http://www.w3.org/2000/svg">
    <path d="M9.9209 29.5315C10.8235 31.572 12.8661 33 15.237 33C17.6079 33 19.6505 31.572 20.5531 29.5315H9.9209Z"
          fill="grey"/>
    <path fill-rule="evenodd" clip-rule="evenodd"
          d="M26.1801 13.5688C25.3375 13.8486 24.4364 14 23.4998 14C18.8054 14 15 10.1946 15 5.50016C15 3.65919 15.5852 1.9549 16.5798 0.56321C16.1396 0.508839 15.6913 0.480835 15.2365 0.480835C9.22992 0.480835 4.3431 5.36751 4.3431 11.3742C4.3431 14.7033 4.01424 19.3666 2.44748 22.677C1.5944 24.4797 0.74231 25.0755 0.629104 25.1489C0.152058 25.3693 -0.0830799 25.8785 0.026591 26.3945C0.13739 26.9156 0.625343 27.2748 1.15805 27.2748H29.3158C29.8486 27.2748 30.3365 26.9155 30.4473 26.3945C30.557 25.8785 30.3218 25.3693 29.8447 25.1489C29.7315 25.0756 28.8794 24.4797 28.0264 22.677C26.7811 20.0458 26.3178 16.5601 26.1801 13.5688Z"
          fill="grey"/>
</svg>
