<?xml version="1.0" encoding="UTF-8"?>
<!DOCTYPE svg PUBLIC "-//W3C//DTD SVG 1.0//EN" "http://www.w3.org/TR/2001/REC-SVG-20010904/DTD/svg10.dtd">
<!-- Creator: CorelDRAW 2018 (64-Bit) -->
<svg xmlns="http://www.w3.org/2000/svg" xml:space="preserve" width="325px" height="362px" version="1.0"
     shape-rendering="geometricPrecision" text-rendering="geometricPrecision" image-rendering="optimizeQuality"
     fill-rule="evenodd" clip-rule="evenodd"
     viewBox="0 0 6.2 6.9"
>
 <g id="Layer_x0020_1">
  <metadata id="CorelCorpID_0Corel-Layer"/>
     <g id="_1639871067904">
   <path fill="currentColor"
         d="M0 0.12l0 4.04c0,0.16 0.24,0.17 0.25,-0.01 0,-0.26 -0.01,-0.52 -0.01,-0.78l0 -3.01c0,-0.04 -0.01,-0.11 0.04,-0.11l4.47 0c0.01,0 0.02,0.01 0.02,0.03 -0.03,1.13 -0.03,2.29 -0.03,3.42 0.01,0 0.02,0 0.03,0 0.08,0 0.16,0.01 0.24,0.02l0 -0.48 0 -1.85c0,-0.13 0.01,-1.28 0,-1.31 -0.03,-0.06 -0.08,-0.07 -0.16,-0.07 -0.1,0 -0.2,0 -0.31,0 -0.1,0 -0.19,-0.01 -0.3,-0.01 -1.37,0 -2.73,0 -4.1,0 -0.08,0 -0.14,0.05 -0.14,0.12l0 0zm4.75 6.19c0,0.1 0,0.2 0,0.3 0,0.02 -0.02,0.04 -0.03,0.04l-4.44 0c-0.03,0 -0.03,-0.02 -0.05,-0.03 0,-0.11 0.01,-1.45 0,-1.53 -0.01,-0.04 -0.03,-0.07 -0.07,-0.09l-0.06 -0.02c-0.02,0 -0.05,0.02 -0.07,0.05 -0.02,0.02 -0.03,0.04 -0.03,0.08l0 1.65c0,0.09 0.06,0.14 0.15,0.14l4.71 0c0.04,0 0.09,-0.02 0.11,-0.05 0.01,-0.02 0.02,-0.04 0.03,-0.05l0.01 -0.39 0 -0.12c-0.08,0.01 -0.16,0.02 -0.24,0.02 -0.01,0 -0.01,0 -0.02,0z"/>
         <path fill="currentColor"
               d="M0.95 2.14c0,0.07 0.06,0.13 0.16,0.13l2.76 0c0.21,0 0.21,-0.17 0.12,-0.23 -0.03,-0.02 -0.08,-0.02 -0.13,-0.02l-2.73 0c-0.08,0 -0.13,0 -0.16,0.06 -0.01,0.01 -0.02,0.04 -0.02,0.06l0 0z"/>
         <path fill="currentColor"
               d="M0.95 1.3c0,0.05 0.04,0.13 0.11,0.13l2.86 0c0.17,0 0.16,-0.24 0,-0.24l-2.84 0c-0.08,0 -0.13,0.07 -0.13,0.11l0 0z"/>
         <path fill="currentColor"
               d="M0.95 2.96c0,0.09 0.06,0.13 0.15,0.13l2.81 0c0.2,0 0.15,-0.24 0.02,-0.24l-2.87 0c-0.05,0 -0.11,0.06 -0.11,0.11l0 0z"/>
         <path fill="#0B716B"
               d="M4.51 5.27c-0.05,-0.02 -0.08,-0.07 -0.12,-0.11l-0.3 -0.32c-0.06,-0.04 -0.11,-0.05 -0.17,0 -0.01,0.01 -0.01,0.02 -0.02,0.03 -0.04,0.08 0.01,0.13 0.06,0.18 0.16,0.16 0.3,0.32 0.45,0.49 0.03,0.03 0.07,0.06 0.14,0.04 0.03,0 0.05,-0.01 0.07,-0.04l0.81 -0.84c0.04,-0.04 0.09,-0.08 0.09,-0.13 0,-0.08 -0.1,-0.18 -0.2,-0.09l-0.09 0.09c-0.08,0.08 -0.22,0.22 -0.32,0.31l-0.36 0.36c-0.01,0.02 -0.02,0.02 -0.04,0.03z"/>
         <circle fill="none" stroke="#0B716B" stroke-width="0.25" stroke-miterlimit="22.9256" cx="4.77" cy="5.01"
                 r="1.31"/>
         <path fill="currentColor" d="M0 4.61c0,0.18 0.24,0.14 0.24,0.01 0,-0.18 -0.24,-0.16 -0.24,-0.01z"/>
  </g>
 </g>
</svg>
