<svg width="24" height="30" viewBox="0 0 24 30" fill="none" xmlns="http://www.w3.org/2000/svg">
    <path fill-rule="evenodd" clip-rule="evenodd"
          d="M7.97324e-05 26.1625C7.97324e-05 26.7722 0.0734335 27.3021 0.337667 27.8501C0.542499 28.275 0.782095 28.648 1.05382 28.9088C1.41047 29.2513 1.60844 29.4049 2.05877 29.6421C2.36183 29.8017 3.05455 29.9976 3.45576 29.9976C8.67982 29.9976 13.9059 29.9976 19.1323 29.9976C20.5487 29.9976 21.8546 30.1029 22.9431 28.9219C23.04 28.8167 23.1372 28.7299 23.2281 28.6076C24.5314 26.8561 23.9208 25.1733 23.3107 23.2454C23.2092 22.9246 23.0891 22.6498 22.9809 22.3432C22.7368 21.6514 22.0892 20.3904 21.7622 19.8426C21.2948 19.0596 21.1678 18.9262 20.6413 18.2074C20.336 17.7907 20.0009 17.3939 19.6338 17.0349C19.4469 16.8521 19.2942 16.6523 19.0259 16.4181L18.0197 15.6025C17.8933 15.5056 16.9645 14.858 16.8774 14.8633L15.8792 15.4748C14.6022 16.0944 13.4807 16.4332 11.9651 16.4332C10.2296 16.4332 8.43616 15.7886 7.2924 14.9583C7.12648 14.8378 7.16786 14.8171 6.79902 15.0536C6.09004 15.5083 6.09442 15.5099 5.44325 16.0323C5.36399 16.0959 5.3333 16.1509 5.24822 16.2189C4.9568 16.4517 5.11164 16.3077 4.85116 16.5838C4.75962 16.6809 4.7192 16.6843 4.54148 16.8724C4.31822 17.1087 4.10677 17.3067 3.88799 17.5803C3.76209 17.7378 3.64345 17.8628 3.53326 17.989C3.47059 18.0608 3.42522 18.1455 3.37395 18.2123L3.18914 18.4358C2.71114 19.0725 2.05933 20.1045 1.71337 20.8384L1.45607 21.3743C0.968668 22.2905 0 25.1903 0 26.1626L7.97324e-05 26.1625Z"
          fill="currentColor"/>
    <path fill-rule="evenodd" clip-rule="evenodd"
          d="M11.3547 0.0440555C10.1197 0.196887 9.478 0.419411 8.49092 0.921525C8.26878 1.03451 8.11984 1.15463 7.92163 1.27458C7.82659 1.33214 7.73944 1.39658 7.64743 1.46193L6.89133 2.11942C6.60748 2.43672 6.28464 2.74427 6.02663 3.13553C5.5704 3.82721 5.37099 4.13246 5.04847 5.00042C4.31063 6.98649 4.48102 9.36096 5.46404 11.2336C5.8914 12.0478 6.50654 12.8463 7.1031 13.358C7.19279 13.4349 7.25371 13.4871 7.347 13.576C7.41294 13.6388 7.51754 13.711 7.60318 13.7816L8.17023 14.165C8.58979 14.4193 8.95002 14.6077 9.4139 14.7907C11.7367 15.7069 14.7283 15.2543 16.6334 13.6011C17.2356 13.0785 17.5043 12.812 17.9884 12.151C18.3672 11.6337 18.7471 10.915 18.9662 10.2857C19.3666 9.1354 19.4508 8.30622 19.3983 6.97739C19.3608 6.02826 18.9655 4.8603 18.549 4.044C18.2573 3.47219 17.8135 2.82757 17.3863 2.39655C16.8862 1.89205 16.5334 1.51858 15.8443 1.11133C14.5357 0.338076 12.9584 -0.154445 11.3547 0.0439735V0.0440555Z"
          fill="currentColor"/>
</svg>
