<svg width="30" height="33" viewBox="0 0 30 33" fill="none" xmlns="http://www.w3.org/2000/svg">
    <path fill-rule="evenodd" clip-rule="evenodd"
          d="M8.50795 21.5276V15.598C8.50795 14.3259 9.36278 13.9222 10.506 13.9222V10.5706C10.506 9.38562 11.3915 8.3912 12.4655 7.95389C13.2365 7.63994 14.664 7.73463 15.5978 7.73463C16.6156 7.73463 17.2916 8.03784 17.8642 8.49751C18.306 8.85207 18.8849 9.78915 18.8849 10.5704V13.9221C20.0235 13.9221 20.883 14.3411 20.883 15.5978V21.5274C20.883 22.5133 20.1931 23.2031 19.2072 23.2031H10.1838C9.18346 23.2031 8.50812 22.5276 8.50812 21.5274L8.50795 21.5276ZM14.6177 0.000140109H14.8233C15.0788 0.0270991 15.3668 0.153704 15.9926 0.37876C16.3743 0.515944 16.7243 0.660294 17.1198 0.798501L21.6644 2.44146C23.4159 3.02296 25.5822 3.87216 27.3847 4.52003C28.254 4.83245 29.0222 4.91452 29.1242 5.8743C29.647 10.7989 29.5197 15.2941 28.3342 20.0841C28.1808 20.7039 27.9686 21.2479 27.787 21.7927C27.1086 23.8291 25.9755 25.8321 24.6361 27.4718C22.6114 29.9505 19.7546 31.9042 16.6291 32.6778C16.1027 32.808 15.399 33 14.7599 33C13.579 33 11.9865 32.4995 11.0578 32.1259C10.2802 31.8131 9.56992 31.4577 8.85739 31.0391C8.60793 30.8926 8.40045 30.7677 8.1858 30.615C7.2907 29.9777 6.53175 29.3777 5.7525 28.601C5.24301 28.0933 4.68472 27.4077 4.24467 26.8218C2.87198 24.9945 1.61276 22.3394 1.05669 20.0839C0.0909438 16.1665 0 14.5808 0 10.3125C0 9.23529 0.0796825 8.31067 0.128994 7.28333C0.150322 6.83816 0.224544 6.36911 0.260035 5.86747C0.291601 5.42077 0.527747 5.10494 0.877873 4.93858C1.25325 4.7601 1.65815 4.65005 2.05315 4.50246C2.40498 4.37108 2.79247 4.21632 3.18167 4.08408C5.40425 3.32889 7.88038 2.32254 10.0467 1.60335L13.4459 0.361868C14.0678 0.146196 14.3659 0.0260753 14.6176 -3.05176e-05L14.6177 0.000140109Z"
          fill="currentColor"/>
    <path fill-rule="evenodd" clip-rule="evenodd"
          d="M12.5034 10.828V13.9218H16.8861V10.828C16.8861 10.3242 16.4585 9.79675 15.9839 9.79675H13.4057C12.931 9.79675 12.5034 10.3242 12.5034 10.828Z"
          fill="currentColor"/>
    <path fill-rule="evenodd" clip-rule="evenodd"
          d="M13.4059 17.08C13.4059 17.5572 13.5028 18.2228 14.0504 18.3691L14.0456 20.6297C14.0429 21.2465 14.1016 21.1406 15.0817 21.1406C15.483 21.1406 15.3395 20.3079 15.3395 19.916C15.3395 19.4003 15.3395 18.8847 15.3395 18.3691C15.8872 18.2228 15.9839 17.5572 15.9839 17.08C15.9839 16.6075 15.3606 15.9842 14.8882 15.9842H14.5015C14.0291 15.9842 13.4058 16.6075 13.4058 17.08H13.4059Z"
          fill="currentColor"/>
</svg>
