<svg xmlns="http://www.w3.org/2000/svg" viewBox="0 0 22 27">

    <g id="trash">
        <path id="Path 52" class="shp0"
              d="M8.75 2.06L13.14 2.06L13.14 2.79L14.72 2.79L14.72 1.95C14.72 1.13 14.06 0.47 13.24 0.47L8.64 0.47C7.83 0.47 7.16 1.13 7.16 1.95L7.16 2.79L8.75 2.79L8.75 2.06Z"/>
        <path id="Path 53" fill-rule="evenodd" class="shp0"
              d="M18.38 9.07C18.79 9.07 19.11 9.42 19.08 9.83L17.83 25.21C17.76 26.07 17.05 26.73 16.19 26.73L5.7 26.73C4.84 26.73 4.12 26.07 4.05 25.21L2.81 9.83C2.78 9.42 3.1 9.07 3.5 9.07L18.38 9.07ZM7.11 25.09C7.54 25.06 7.88 24.68 7.85 24.25L7.07 11.62C7.04 11.18 6.66 10.85 6.23 10.88C5.79 10.91 5.46 11.28 5.49 11.72L6.27 24.35C6.29 24.77 6.64 25.09 7.06 25.09C7.07 25.09 7.09 25.09 7.11 25.09ZM11.74 11.67C11.74 11.23 11.39 10.88 10.95 10.88C10.51 10.88 10.16 11.23 10.16 11.67L10.16 24.3C10.16 24.73 10.51 25.09 10.95 25.09C11.39 25.09 11.74 24.73 11.74 24.3L11.74 11.67ZM15.65 10.88C15.22 10.85 14.84 11.19 14.82 11.62L14.07 24.25C14.05 24.69 14.38 25.06 14.82 25.09C14.83 25.09 14.85 25.09 14.86 25.09C15.28 25.09 15.63 24.76 15.65 24.34L16.4 11.72C16.42 11.28 16.09 10.9 15.65 10.88Z"/>
        <path id="Path 54" class="shp0"
              d="M21.12 6.63L20.6 5.07C20.47 4.66 20.08 4.38 19.65 4.38L2.24 4.38C1.81 4.38 1.42 4.66 1.28 5.07L0.76 6.63C0.66 6.93 0.79 7.24 1.04 7.39C1.14 7.45 1.25 7.49 1.38 7.49L20.5 7.49C20.63 7.49 20.75 7.45 20.85 7.39C21.09 7.23 21.22 6.93 21.12 6.63L21.12 6.63Z"/>
    </g>
</svg>
