<?xml version="1.0" encoding="utf-8"?>
<!-- Generator: Adobe Illustrator 27.0.0, SVG Export Plug-In . SVG Version: 6.00 Build 0)  -->
<svg version="1.1" id="Layer_1" xmlns="http://www.w3.org/2000/svg" xmlns:xlink="http://www.w3.org/1999/xlink" x="0px" y="0px"
	 viewBox="0 0 800 800" style="enable-background:new 0 0 800 800;" xml:space="preserve">
<style type="text/css">
	.st0{fill:#0F1F3C;}
</style>
<path class="st0" d="M142.9,142.9h28.6V85.7H85.7v657.1h428.2v-57.1H142.9V142.9z M600,314.3h57.1V85.7h-85.7v57.1H600V314.3z
	 M285.7,85.7h171.4v57.1H285.7V85.7z"/>
<g>
	<rect x="199.1" y="52.8" class="st0" width="56" height="123"/>
	<rect x="494.3" y="52.8" class="st0" width="56" height="123"/>
	
		<rect x="343.4" y="195.2" transform="matrix(-1.836970e-16 1 -1 -1.836970e-16 742.2852 -0.582)" class="st0" width="56" height="351.2"/>
	
		<rect x="303.6" y="338.5" transform="matrix(-1.836970e-16 1 -1 -1.836970e-16 805.791 142.6387)" class="st0" width="56" height="271.5"/>
	
		<rect x="273.9" y="467.3" transform="matrix(-1.836970e-16 1 -1 -1.836970e-16 875.3594 271.5)" class="st0" width="56" height="212.2"/>
	
		<rect x="605.9" y="439.3" transform="matrix(-1 -1.224647e-16 1.224647e-16 -1 1254.7532 1090.8594)" class="st0" width="42.9" height="212.2"/>
	
		<rect x="605.9" y="439.3" transform="matrix(6.123234e-17 -1 1 6.123234e-17 81.9469 1172.8063)" class="st0" width="42.9" height="212.2"/>
</g>
</svg>
