<svg width="24" height="24" viewBox="0 0 24 24">
    <path
        d="M12.9062 5.17355C12.8755 4.60101 12.2904 4.69842 11.7195 4.69842C12.1412 4.81074 12.5402 4.96701 12.9062 5.17355Z"
        fill="currentColor"/>
    <path
        d="M6.80307 3.73877C4.58673 3.73877 3.56658 6.54408 5.33834 7.95501C5.94233 6.34225 7.14469 5.18424 8.72094 4.72716C8.28976 4.13106 7.59312 3.73877 6.80307 3.73877Z"
        fill="currentColor"/>
    <path
        d="M2.2244 7.51595C2.31472 7.80578 2.43175 8.08383 2.57077 8.34727L1.84273 9.07571C1.64722 9.27123 1.64722 9.58857 1.84273 9.78449L3.12601 11.0682C3.21947 11.1616 3.34752 11.2142 3.48098 11.2142C3.61297 11.2142 3.74016 11.1616 3.83524 11.0682L4.56247 10.3397C4.67161 10.3975 4.79258 10.4329 4.90561 10.4827C4.90561 10.4744 4.9048 10.4658 4.9048 10.4575C4.9048 9.86222 4.97318 9.30066 5.0949 8.77334C4.21686 8.20824 3.63098 7.22733 3.63098 6.1074C3.63098 4.358 5.05404 2.93453 6.80304 2.93453C7.98735 2.93453 9.00988 3.59384 9.55571 4.5571C10.1385 4.48483 10.6859 4.48483 11.3448 4.60934C11.26 4.35294 11.1603 4.102 11.0354 3.86678L11.7634 3.13798C11.8584 3.04412 11.911 2.91647 11.911 2.78377C11.911 2.65102 11.8584 2.52342 11.7634 2.42956L10.4808 1.14668C10.3827 1.04852 10.2547 0.999821 10.1267 0.999821C9.99863 0.999821 9.87063 1.04852 9.77323 1.14668L9.04286 1.87549C8.77902 1.7357 8.50178 1.61868 8.21124 1.53033V0.500669C8.21124 0.224239 7.98816 0 7.71092 0H5.89597C5.6203 0 5.39485 0.224239 5.39485 0.500669V1.53028C5.10507 1.61863 4.82778 1.73565 4.56313 1.87544L3.83524 1.14744C3.73703 1.04928 3.60903 1.00058 3.48098 1.00058C3.35298 1.00058 3.22422 1.04928 3.12682 1.14704L1.84273 2.42991C1.74927 2.52418 1.69668 2.65137 1.69668 2.78453C1.69668 2.91764 1.74927 3.04488 1.84273 3.13874L2.57077 3.86714C2.4317 4.13103 2.31472 4.40867 2.22602 4.69845H1.19717C0.91993 4.69845 0.696045 4.92304 0.696045 5.19988V7.01488C0.696045 7.2909 0.91993 7.51595 1.19717 7.51595H2.2244Z"
        fill="currentColor"/>
    <path
        d="M17.9467 17.2278C18.7494 16.7876 19.3007 15.945 19.3007 14.9671C19.3007 13.5401 18.1392 12.3794 16.7122 12.3794C16.2104 12.3794 15.7453 12.5294 15.348 12.7776C15.1101 13.7247 14.7354 14.6306 14.2454 15.4175C15.6346 15.6787 16.9093 16.3113 17.9467 17.2278Z"
        fill="currentColor"/>
    <path
        d="M23.3029 13.9878C23.3029 13.6889 23.0602 13.447 22.7626 13.447H21.6522C21.5563 13.134 21.4291 12.834 21.2783 12.5493L22.0644 11.7632C22.1665 11.6619 22.223 11.5245 22.223 11.3812C22.223 11.2378 22.1665 11.1003 22.0644 10.9987L20.6805 9.61445C20.5754 9.50875 20.4363 9.45575 20.2982 9.45575C20.1599 9.45575 20.0217 9.50875 19.9165 9.61445L19.1288 10.401C18.8444 10.2501 18.5452 10.1238 18.2311 10.0283V8.91781C18.2311 8.61938 17.9899 8.37744 17.6915 8.37744H15.7336C15.6024 8.37744 15.487 8.43004 15.3928 8.50782C15.5577 9.10938 15.648 9.76167 15.648 10.4575C15.648 10.8992 15.6135 11.3478 15.5491 11.7938C15.9135 11.6595 16.3014 11.5751 16.7122 11.5751C18.5829 11.5751 20.1049 13.0968 20.1049 14.967C20.1049 16.1624 19.4806 17.2101 18.5437 17.8144C19.2254 18.5621 19.7673 19.4491 20.1199 20.443C20.178 20.463 20.2384 20.4776 20.2989 20.4776C20.4371 20.4776 20.5754 20.425 20.6814 20.3193L22.066 18.935C22.1674 18.8337 22.2231 18.6963 22.2231 18.553C22.2231 18.4096 22.1674 18.2722 22.066 18.1705L21.2783 17.384C21.4291 17.0997 21.5563 16.7996 21.6522 16.4863H22.7626C22.9055 16.4863 23.0446 16.4298 23.1451 16.3276C23.2465 16.2267 23.3038 16.0889 23.3038 15.9455L23.3029 13.9878Z"
        fill="currentColor"/>
    <path
        d="M19.0172 20.9323C18.1776 18.462 15.959 16.7629 13.3979 16.5316C12.5403 17.4398 11.4784 18.016 10.276 18.016C9.07442 18.016 8.01179 17.4398 7.15499 16.5316C4.59237 16.7629 2.3737 18.462 1.53409 20.9327L1.06999 22.2989C0.937236 22.692 1.00081 23.1251 1.24275 23.4624C1.48463 23.7998 1.8742 24 2.28884 24H18.2624C18.6778 24 19.0674 23.7998 19.3093 23.4624C19.5504 23.1251 19.6148 22.692 19.4813 22.2989L19.0172 20.9323Z"
        fill="currentColor"/>
    <path
        d="M6.11108 10.4575C6.11108 13.5217 7.97635 16.8096 10.2758 16.8096C12.5762 16.8096 14.4414 13.5217 14.4414 10.4575C14.4415 4.10591 6.11108 4.09331 6.11108 10.4575Z"
        fill="currentColor"/>
</svg>
