<?xml version="1.0" encoding="UTF-8"?>
<svg id="Layer_1" data-name="Layer 1" xmlns="http://www.w3.org/2000/svg" viewBox="0 0 24 20.94">
  <path d="M12,8.16c2.25,0,4.08-1.83,4.08-4.08S14.25,0,12,0,7.92,1.83,7.92,4.08s1.83,4.08,4.08,4.08Z"/>
  <path d="M20.25,8.16c1.42,0,2.58-1.15,2.58-2.58s-1.15-2.58-2.58-2.58-2.58,1.15-2.58,2.58,1.15,2.58,2.58,2.58Z"/>
  <path d="M3.75,8.16c1.42,0,2.58-1.15,2.58-2.58s-1.15-2.58-2.58-2.58-2.58,1.15-2.58,2.58,1.15,2.58,2.58,2.58Z"/>
  <path d="M6.29,10.47c-1.01-.83-1.93-.72-3.11-.72-1.76,0-3.18,1.42-3.18,3.16v5.12c0,.76,.62,1.37,1.38,1.37,3.28,0,2.89,.06,2.89-.14,0-3.63-.43-6.29,2.02-8.79Z"/>
  <path d="M13.12,9.77c-2.05-.17-3.83,0-5.37,1.27-2.57,2.06-2.08,4.83-2.08,8.23,0,.9,.73,1.64,1.64,1.64,9.89,0,10.29,.32,10.87-.98,.19-.44,.14-.3,.14-4.5,0-3.34-2.89-5.65-5.21-5.65Z"/>
  <path d="M20.82,9.75c-1.18,0-2.09-.11-3.11,.72,2.44,2.49,2.02,4.97,2.02,8.79,0,.2-.33,.14,2.84,.14,.79,0,1.43-.64,1.43-1.42v-5.07c0-1.74-1.43-3.16-3.18-3.16Z"/>
</svg>