<svg width="24" height="22" viewBox="0 0 24 22" fill="none">
    <path
        d="M12 8.68585C14.2523 8.68585 16.0781 6.86001 16.0781 4.60773C16.0781 2.35544 14.2523 0.529602 12 0.529602C9.74771 0.529602 7.92188 2.35544 7.92188 4.60773C7.92188 6.86001 9.74771 8.68585 12 8.68585Z"
        fill="white"/>
    <path
        d="M20.25 8.68579C21.6739 8.68579 22.8281 7.53152 22.8281 6.10766C22.8281 4.68381 21.6739 3.52954 20.25 3.52954C18.8261 3.52954 17.6719 4.68381 17.6719 6.10766C17.6719 7.53152 18.8261 8.68579 20.25 8.68579Z"
        fill="white"/>
    <path
        d="M3.75 8.68579C5.17386 8.68579 6.32812 7.53152 6.32812 6.10766C6.32812 4.68381 5.17386 3.52954 3.75 3.52954C2.32614 3.52954 1.17188 4.68381 1.17188 6.10766C1.17188 7.53152 2.32614 8.68579 3.75 8.68579Z"
        fill="white"/>
    <path
        d="M6.29016 11.001C5.27531 10.1695 4.35623 10.2796 3.18281 10.2796C1.42781 10.2796 0 11.699 0 13.4432V18.5624C0 19.3199 0.618281 19.9359 1.37859 19.9359C4.66106 19.9359 4.26562 19.9952 4.26562 19.7943C4.26562 16.1668 3.83597 13.5066 6.29016 11.001Z"
        fill="white"/>
    <path
        d="M13.116 10.2983C11.0664 10.1273 9.28494 10.3003 7.74833 11.5686C5.17691 13.6283 5.67177 16.4016 5.67177 19.7942C5.67177 20.6918 6.40208 21.4358 7.31333 21.4358C17.2078 21.4358 17.6016 21.755 18.1883 20.4556C18.3807 20.0162 18.328 20.1559 18.328 15.9524C18.328 12.6136 15.4371 10.2983 13.116 10.2983Z"
        fill="white"/>
    <path
        d="M20.8173 10.2795C19.6375 10.2795 18.7234 10.1706 17.71 11.001C20.1458 13.488 19.7345 15.9667 19.7345 19.7942C19.7345 19.9964 19.4062 19.9358 22.5723 19.9358C23.3598 19.9358 24.0001 19.2978 24.0001 18.5136V13.4431C24.0001 11.6989 22.5723 10.2795 20.8173 10.2795Z"
        fill="white"/>
</svg>
