<?xml version="1.0" encoding="UTF-8"?>
<svg xmlns="http://www.w3.org/2000/svg" width="24px" height="24px"
     viewBox="0 0 24 24" version="1.1">
    <g id="surface1">
        <path style=" stroke:none;fill-rule:nonzero;fill:currentColor;fill-opacity:1;"
              d="M 12 0 C 5.359375 0 0 5.378906 0 12 C 0 18.628906 5.371094 24 12 24 C 18.660156 24 24 18.605469 24 12 C 24 5.363281 18.617188 0 12 0 Z M 18.175781 19.066406 C 16.464844 20.566406 14.296875 21.386719 12 21.386719 C 9.703125 21.386719 7.535156 20.566406 5.824219 19.070312 C 5.59375 18.867188 5.488281 18.554688 5.550781 18.253906 C 6.140625 15.367188 7.980469 13.089844 10.320312 12.34375 C 9.097656 11.621094 8.261719 10.132812 8.261719 8.417969 C 8.261719 5.992188 9.933594 4.027344 12 4.027344 C 14.066406 4.027344 15.738281 5.992188 15.738281 8.417969 C 15.738281 10.132812 14.902344 11.617188 13.679688 12.339844 C 16.019531 13.089844 17.859375 15.367188 18.449219 18.253906 C 18.511719 18.554688 18.40625 18.867188 18.175781 19.066406 Z M 18.175781 19.066406 "/>
    </g>
</svg>
