<svg xmlns="http://www.w3.org/2000/svg" xml:space="preserve" width="313px" height="381px" version="1.1"
     shape-rendering="geometricPrecision" text-rendering="geometricPrecision" image-rendering="optimizeQuality"
     viewBox="0 0 1972 2404"
>
 <g id="Layer_x0020_1">
  <metadata id="CorelCorpID_0Corel-Layer"/>
     <g id="_2542353011328">
   <g>
    <path fill="currentColor" d="M1240 670l0 64c193,0 350,158 350,352l64 0c0,-229 -185,-416 -414,-416z"/>
       <path fill="currentColor"
             d="M1809 1146c3,-22 4,-41 4,-61 0,-316 -257,-574 -573,-574 -110,0 -215,31 -305,89 1,-9 2,-17 2,-25 0,-202 -164,-366 -364,-366 -201,0 -364,164 -364,366 0,118 57,229 153,297 -60,67 -99,152 -106,247 -144,16 -255,138 -255,286 0,158 128,287 286,287l1399 0c158,0 286,-129 286,-287 0,-111 -64,-212 -163,-259zm-1537 -571c0,-167 135,-302 300,-302 166,0 301,135 301,302 0,26 -4,54 -11,80 -32,28 -61,60 -85,94 -129,-35 -267,-5 -369,78 -84,-55 -136,-150 -136,-252zm1414 1053l-1400 0c-122,0 -223,-100 -223,-223 0,-123 100,-223 223,-223l32 0 0 -32c0,-194 157,-352 350,-352 56,0 135,27 135,27 0,0 150,-250 437,-250 281,0 509,229 509,511 0,54 -10,101 -10,101l24 9c87,32 145,117 145,209 0,123 -99,223 -222,223z"/>
       <rect fill="currentColor" x="541" width="64" height="148" rx="32" ry="32"/>
       <rect fill="currentColor" transform="matrix(0.727498 -0.68611 0.68611 0.727498 141.317 190.669)" width="64"
             height="148" rx="32" ry="32"/>
       <rect fill="currentColor" transform="matrix(0.00833759 -0.999965 0.999965 0.00833759 -0.259124 605.582)" width="64"
             height="148" rx="32" ry="32"/>
       <rect fill="currentColor" transform="matrix(0.678631 0.734479 -0.734479 0.678631 956.016 143.512)" width="64"
             height="148" rx="32" ry="32"/>
       <rect fill="currentColor" transform="matrix(0.875366 0.483461 -0.376193 0.681144 767.63 72.198)" width="64"
             height="148" rx="32" ry="32"/>
       <rect fill="currentColor" transform="matrix(0.875366 -0.483461 -0.376193 -0.681144 399.602 203.884)" width="64"
             height="148" rx="32" ry="32"/>
       <rect fill="currentColor" transform="matrix(-0.709812 -0.704391 0.704391 -0.709812 190.78 1001.4)" width="64"
             height="148" rx="32" ry="32"/>
       <rect fill="currentColor" transform="matrix(0.396032 -0.918237 -0.714502 -0.308162 171.227 443.056)" width="64"
             height="148" rx="32" ry="32"/>
       <rect fill="currentColor" transform="matrix(-0.388294 -0.921536 -0.717069 0.302141 195.889 765.621)" width="64"
             height="148" rx="32" ry="32"/>
       <rect fill="currentColor" transform="matrix(0.398704 0.91708 -0.713602 0.310241 1052.51 340.186)" width="64"
             height="148" rx="32" ry="32"/>
   </g>
         <path fill="currentColor"
               d="M377 2087c-17,0 -31,-14 -31,-31l0 -238c0,-17 14,-31 31,-31 17,0 31,14 31,31l0 238c0,17 -14,31 -31,31 0,0 0,0 0,0l0 0z"/>
         <path fill="currentColor"
               d="M277 2032c0,0 0,0 0,0 -17,0 -31,-14 -31,-31 0,-10 5,-20 14,-26l201 -128c4,-3 10,-4 15,-4 18,0 31,14 31,31 0,10 -4,19 -13,25l-200 128c-5,4 -11,5 -17,5l0 0z"/>
         <path fill="currentColor"
               d="M477 2032c0,0 0,0 0,0 -5,0 -11,-1 -16,-5l-201 -128c-9,-5 -14,-15 -14,-26 0,-17 14,-31 31,-31 6,0 12,2 17,5l200 128c9,6 15,15 15,26 0,17 -14,31 -31,31 0,0 -1,0 -1,0l0 0z"/>
         <path fill="currentColor"
               d="M1035 2087c-17,0 -31,-14 -31,-31l0 -238c0,-17 14,-31 31,-31 17,0 31,14 31,31l0 238c0,17 -14,31 -31,31 0,0 0,0 0,0l0 0z"/>
         <path fill="currentColor"
               d="M935 2032c0,0 0,0 0,0 -18,0 -31,-14 -31,-31 0,-10 5,-20 14,-26l200 -128c6,-4 12,-6 19,-6 17,0 31,14 31,31 0,11 -6,22 -16,27l-201 128c-5,4 -10,5 -16,5z"/>
         <path fill="currentColor"
               d="M1135 2032c-6,0 -12,-1 -17,-5l-200 -128c-9,-5 -14,-15 -14,-26 0,-17 13,-31 31,-31 6,0 11,2 16,5l201 128c9,6 14,16 14,26 0,17 -14,31 -31,31 0,0 0,0 0,0l0 0z"/>
         <path fill="currentColor"
               d="M706 2404c-17,0 -31,-14 -31,-32l0 -237c0,-17 14,-31 31,-31 17,0 31,14 31,31l0 237c0,18 -14,32 -31,32l0 0z"/>
         <path fill="currentColor"
               d="M606 2349c0,0 0,0 0,0 -17,0 -31,-14 -31,-31 0,-11 5,-21 14,-27l201 -128c5,-3 10,-4 16,-4 18,0 31,13 31,31 0,10 -5,20 -14,26l-200 128c-5,3 -11,5 -17,5l0 0z"/>
         <path fill="currentColor"
               d="M806 2349c0,0 0,0 0,0 -6,0 -12,-2 -17,-5l-200 -128c-9,-6 -14,-16 -14,-26 0,-18 14,-31 31,-31 6,0 12,1 17,4l200 129c9,5 14,15 14,26 0,17 -13,31 -31,31 0,0 0,0 0,0l0 0z"/>
         <path fill="currentColor"
               d="M1364 2404c-18,0 -31,-14 -31,-32l0 -237c0,-17 13,-31 31,-31 17,0 31,14 31,31l0 237c0,18 -14,32 -31,32l0 0z"/>
         <path fill="currentColor"
               d="M1264 2349c-1,0 -1,0 -1,0 -17,0 -31,-14 -31,-31 0,-11 6,-21 15,-27l200 -128c5,-3 11,-4 17,-4 17,0 31,13 31,31 0,10 -5,20 -14,26l-201 128c-5,3 -11,5 -16,5l0 0z"/>
         <path fill="currentColor"
               d="M1464 2349c0,0 0,0 0,0 -6,0 -12,-2 -17,-5l-200 -128c-9,-6 -15,-16 -15,-26 0,-18 14,-31 31,-31 6,0 12,1 17,4l201 129c9,5 14,15 14,26 0,17 -14,31 -31,31 0,0 0,0 0,0l0 0z"/>
         <path fill="currentColor"
               d="M1692 2087c-17,0 -31,-14 -31,-31l0 -238c0,-17 14,-31 31,-31 18,0 32,14 32,31l0 238c0,17 -14,31 -32,31 0,0 0,0 0,0l0 0z"/>
         <path fill="currentColor"
               d="M1592 2032c0,0 0,0 0,0 -17,0 -31,-14 -31,-31 0,-10 6,-20 15,-26l200 -128c5,-3 10,-4 15,-4 17,0 31,14 31,31 0,10 -4,19 -13,25l-200 128c-5,4 -11,5 -17,5z"/>
         <path fill="currentColor"
               d="M1793 2032c0,0 0,0 0,0 -6,0 -12,-1 -17,-5l-200 -128c-9,-5 -15,-15 -15,-26 0,-17 14,-31 31,-31 6,0 12,2 17,5l200 128c9,6 15,15 15,26 0,17 -14,31 -31,31 0,0 0,0 0,0l0 0z"/>
  </g>
 </g>
</svg>
