<svg xmlns="http://www.w3.org/2000/svg" xml:space="preserve" width="313px" height="274px" version="1.1"
     shape-rendering="geometricPrecision" text-rendering="geometricPrecision" image-rendering="optimizeQuality"
     viewBox="0 0 938 822">
 <g id="Layer_x0020_1">
  <metadata id="CorelCorpID_0Corel-Layer"/>
     <g id="_2542387625216">
   <path fill="currentColor"
         d="M937 437c-8,-106 -96,-187 -202,-187 -16,0 -32,2 -48,6 -5,-91 -69,-168 -157,-188 -2,-1 -3,-1 -4,-1 -41,-66 -127,-87 -193,-46 -31,19 -53,49 -63,84 -63,-29 -137,-1 -165,62 -7,17 -11,34 -11,52 0,5 0,11 1,16 -60,8 -102,63 -94,123 3,25 15,48 34,66 -2,2 -4,4 -6,6 -19,25 -29,55 -29,86 0,77 63,140 141,140l594 0c5,0 11,0 16,0 112,-9 196,-107 186,-219zm-886 -145c15,-17 36,-26 58,-26l2 0c0,0 1,0 1,0 5,0 11,-2 14,-6 3,-4 4,-9 3,-14 -3,-9 -4,-18 -4,-27 0,-52 42,-94 94,-94 19,0 38,6 54,17 7,5 17,4 22,-3 1,-3 2,-5 3,-8 5,-59 56,-103 115,-100 26,2 51,13 70,32 -1,0 -2,0 -3,0l-1 0c-7,0 -14,1 -21,1l-1 1c-7,1 -14,2 -21,4l-1 0c-7,2 -13,4 -20,6l-2 1c-6,2 -12,4 -18,7 -1,1 -1,1 -2,2 -6,2 -11,5 -16,9 -1,0 -3,1 -4,2 -5,3 -9,6 -14,10 -1,1 -2,2 -3,3 -6,4 -12,9 -17,14 -13,14 -24,28 -32,45l0 -1 0 1c-1,0 -1,1 -2,2 -6,12 -12,25 -15,38 -4,12 -6,24 -7,36 -1,7 -2,14 -2,22 0,1 0,2 0,3 -33,-7 -68,-3 -98,12 -7,3 -14,7 -20,11 -4,3 -7,5 -10,8 -6,5 -12,10 -17,15 -5,6 -10,11 -14,17 -10,15 -18,32 -23,49 -7,2 -13,5 -20,8 -7,4 -13,8 -19,12 -1,1 -2,1 -2,1 -33,-28 -36,-78 -7,-110zm698 333c-5,0 -10,0 -14,0l-594 0c-61,0 -110,-49 -110,-109 0,-24 8,-48 23,-67 4,-5 9,-11 14,-15 8,-7 16,-12 25,-17 7,-3 15,-6 23,-8 6,-1 10,-6 12,-12 3,-17 10,-33 20,-47 3,-4 7,-9 11,-13 4,-5 9,-9 14,-13 2,-2 5,-4 7,-6 5,-3 11,-6 16,-9 4,-2 8,-3 12,-5 3,-1 6,-2 9,-2 1,-1 2,-1 4,-1 3,-1 6,-2 9,-2 1,0 2,-1 3,-1 3,0 6,0 9,-1 2,0 3,0 5,0 3,0 6,0 9,0 1,0 2,0 3,0 3,0 5,1 8,1 1,0 2,0 4,1 2,0 5,1 8,1 1,1 2,1 3,1 4,1 7,2 11,4 8,3 17,-1 20,-9 1,-3 1,-5 1,-8 -1,-7 -1,-15 -1,-22 0,-6 0,-12 1,-18 1,-11 3,-21 5,-31 4,-11 8,-22 14,-33 0,0 1,0 1,-1 0,0 0,0 0,-1 7,-13 17,-26 28,-37 32,-33 76,-51 123,-51 5,0 10,0 15,1 4,0 9,1 13,1l1 1c3,0 6,0 9,1 78,18 133,88 133,168 0,3 0,6 0,10 0,8 6,16 15,16 2,0 4,0 6,-1 18,-6 38,-10 58,-10 94,0 172,77 172,172 0,90 -69,164 -158,172z"/>
         <g>
    <g>
     <path fill="currentColor"
           d="M171 720c-10,-10 -27,-10 -37,0l-57 57c-10,10 -10,27 0,37 9,10 27,10 37,0l57 -57c10,-10 10,-27 0,-37z"/>
    </g>
   </g>
         <g>
    <g>
     <path fill="currentColor"
           d="M334 720c-10,-10 -26,-10 -37,0l-57 57c-10,10 -10,27 0,37 10,10 27,10 38,0l56 -57c11,-10 11,-27 0,-37z"/>
    </g>
   </g>
         <g>
    <g>
     <path fill="currentColor"
           d="M502 720c-10,-10 -26,-10 -37,0l-56 57c-11,10 -11,27 0,37 9,10 26,10 37,0l56 -57c11,-10 11,-27 0,-37z"/>
    </g>
   </g>
         <g>
    <g>
     <path fill="currentColor"
           d="M667 720c-10,-10 -27,-10 -37,0l-57 57c-10,10 -10,27 0,37 10,10 27,10 37,0l57 -57c11,-10 11,-27 0,-37z"/>
    </g>
   </g>
         <g>
    <g>
     <path fill="currentColor"
           d="M834 720c-11,-10 -27,-10 -37,0l-57 57c-11,10 -11,27 0,37 9,10 27,10 37,0l57 -57c10,-10 10,-27 0,-37z"/>
    </g>
   </g>
  </g>
 </g>
</svg>
