<svg xmlns="http://www.w3.org/2000/svg" xml:space="preserve" width="313px" height="332px" version="1.1"
     shape-rendering="geometricPrecision" text-rendering="geometricPrecision" image-rendering="optimizeQuality"
     viewBox="0 0 1280 1358">
 <g id="Layer_x0020_1">
  <metadata id="CorelCorpID_0Corel-Layer"/>
     <g id="_2542392297088">
   <path fill="#FEFEFE"
         d="M1279 596c-12,-144 -132,-255 -277,-255 -21,0 -43,3 -64,8 -7,-124 -94,-228 -215,-257 -2,0 -4,0 -6,-1 -55,-90 -173,-118 -263,-63 -42,26 -73,67 -85,115 -86,-39 -187,0 -226,85 -10,23 -15,46 -15,71 0,7 1,15 1,22 -81,11 -138,86 -128,167 5,35 21,66 46,90 -2,3 -5,6 -7,9 -26,33 -40,74 -40,117 0,106 86,192 192,192l810 0c8,0 16,-1 23,-1 153,-13 267,-146 254,-299zm-1209 -197c20,-23 49,-36 79,-36l2 0c1,0 1,0 2,0 7,0 14,-2 19,-8 4,-5 6,-13 4,-20 -4,-12 -5,-24 -5,-36 0,-71 57,-128 128,-128 26,0 52,8 73,23 10,7 23,5 30,-5 2,-3 4,-7 4,-10 8,-81 77,-140 157,-136 36,2 70,17 96,42 -1,0 -3,1 -4,1l-1 0c-10,0 -20,1 -29,2l-2 0c-9,1 -19,3 -28,6l-2 0c-9,2 -18,5 -27,8l-2 1c-8,3 -17,7 -25,11 -1,0 -2,1 -3,1 -8,4 -15,8 -22,13 -1,1 -3,2 -5,3 -6,4 -13,9 -19,14 -1,1 -3,2 -5,3 -8,7 -15,13 -22,20 -18,18 -33,39 -44,61l0 -1 -1 1c0,1 -1,2 -1,3 -9,17 -17,34 -22,52 -5,16 -8,32 -9,49 -2,10 -2,20 -2,30 0,1 0,2 0,4 -46,-9 -93,-3 -135,17 -9,4 -18,9 -26,15 -5,3 -10,7 -15,11 -8,6 -15,13 -22,20 -7,8 -14,15 -19,24 -15,20 -25,42 -32,66 -9,3 -18,7 -27,11 -9,5 -18,10 -26,16 -1,1 -2,1 -3,2 -44,-39 -48,-106 -9,-150zm952 453c-7,1 -13,1 -20,1l-810 0c-82,0 -149,-67 -149,-149 0,-33 11,-65 31,-91 6,-8 12,-15 19,-21 11,-9 22,-17 34,-23 10,-4 20,-8 31,-11 8,-2 14,-8 16,-16 5,-23 14,-45 27,-64 5,-6 10,-13 15,-18 6,-7 13,-12 20,-18 3,-3 7,-5 10,-8 7,-4 14,-8 22,-12 5,-3 11,-5 16,-7 4,-1 8,-2 13,-4 1,0 2,0 4,-1 4,-1 9,-2 13,-2 2,-1 3,-1 4,-1 4,-1 8,-1 13,-1 2,0 4,0 6,-1 4,0 8,0 12,0 1,0 2,0 4,1 4,0 8,0 12,1 1,0 3,0 4,0 4,1 8,2 12,3 1,0 3,1 4,1 5,1 10,3 15,5 11,4 23,-2 27,-13 2,-3 2,-7 1,-10 -1,-10 -1,-20 -1,-30 0,-9 0,-17 1,-25 1,-14 4,-28 8,-42 5,-15 11,-31 19,-45 0,0 0,-1 0,-1 0,0 1,-1 1,-1 10,-19 23,-36 37,-51 44,-45 105,-70 168,-70 7,0 14,0 21,1 6,1 12,1 18,2l1 1c4,0 8,1 12,2 107,25 182,119 183,229 0,4 -1,9 -1,13 0,12 9,22 21,23 2,0 5,-1 8,-2 25,-9 52,-13 78,-13 130,0 235,105 235,234 0,122 -93,224 -215,234z"/>
         <path fill="#FEFEFE"
               d="M198 1153c-11,0 -20,-9 -20,-20l0 -155c0,-11 9,-20 20,-20 11,0 20,9 20,20l0 155c0,11 -9,20 -20,20 0,0 0,0 0,0l0 0z"/>
         <path fill="#FEFEFE"
               d="M133 1117c0,0 0,0 0,0 -11,0 -20,-9 -20,-20 0,-7 3,-13 9,-17l130 -83c3,-2 7,-3 10,-3 12,0 21,9 21,20 0,7 -4,13 -9,17l-130 83c-3,2 -7,3 -11,3l0 0z"/>
         <path fill="#FEFEFE"
               d="M263 1117c0,0 0,0 0,0 -4,0 -8,-1 -11,-3l-130 -83c-6,-4 -9,-10 -9,-17 0,-11 9,-20 20,-20 4,0 8,1 11,3l130 83c6,4 9,10 9,17 0,11 -9,20 -20,20 0,0 0,0 0,0l0 0z"/>
         <path fill="#FEFEFE"
               d="M625 1153c-11,0 -20,-9 -20,-20l0 -155c0,-11 9,-20 20,-20 11,0 20,9 20,20l0 155c0,11 -9,20 -20,20 0,0 0,0 0,0l0 0z"/>
         <path fill="#FEFEFE"
               d="M560 1117c0,0 0,0 0,0 -11,0 -20,-9 -20,-20 0,-7 3,-13 9,-17l130 -83c4,-3 8,-4 12,-4 11,0 20,9 20,20 0,8 -4,14 -10,18l-130 83c-4,2 -7,3 -11,3z"/>
         <path fill="#FEFEFE"
               d="M690 1117c-4,0 -8,-1 -11,-3l-130 -83c-6,-4 -9,-10 -9,-17 0,-11 9,-20 20,-20 4,0 8,1 11,3l130 83c6,4 9,10 9,17 0,11 -9,20 -20,20 0,0 0,0 0,0l0 0z"/>
         <path fill="#FEFEFE"
               d="M411 1358c-11,0 -20,-9 -20,-20l0 -154c0,-11 9,-20 20,-20 12,0 21,9 21,20l0 154c0,11 -9,20 -21,20l0 0z"/>
         <path fill="#FEFEFE"
               d="M346 1323c0,0 0,0 0,0 -11,0 -20,-9 -20,-20 0,-7 4,-14 10,-17l130 -84c3,-2 7,-3 11,-3 11,0 20,9 20,20 0,7 -4,14 -10,17l-130 84c-3,2 -7,3 -11,3l0 0z"/>
         <path fill="#FEFEFE"
               d="M477 1323c0,0 0,0 0,0 -4,0 -8,-1 -11,-3l-130 -84c-6,-3 -10,-10 -10,-17 0,-11 9,-20 20,-20 4,0 8,1 11,3l130 84c6,3 10,10 10,17 0,11 -9,20 -20,20 0,0 0,0 0,0l0 0z"/>
         <path fill="#FEFEFE"
               d="M838 1358c-11,0 -20,-9 -20,-20l0 -154c0,-11 9,-20 20,-20 12,0 21,9 21,20l0 154c0,11 -9,20 -21,20l0 0z"/>
         <path fill="#FEFEFE"
               d="M773 1323c0,0 0,0 0,0 -11,0 -20,-9 -20,-20 0,-7 4,-14 9,-17l131 -84c3,-2 7,-3 10,-3 12,0 21,9 21,20 0,7 -4,14 -10,17l-130 84c-3,2 -7,3 -11,3l0 0z"/>
         <path fill="#FEFEFE"
               d="M903 1323c0,0 0,0 0,0 -3,0 -7,-1 -10,-3l-131 -84c-5,-3 -9,-10 -9,-17 0,-11 9,-20 20,-20 4,0 8,1 11,3l130 84c6,3 10,10 10,17 0,11 -9,20 -21,20 0,0 0,0 0,0l0 0z"/>
         <path fill="#FEFEFE"
               d="M1052 1153c-11,0 -20,-9 -20,-20l0 -155c0,-11 9,-20 20,-20 11,0 20,9 20,20l0 155c0,11 -9,20 -20,20 0,0 0,0 0,0l0 0z"/>
         <path fill="#FEFEFE"
               d="M987 1117c0,0 0,0 0,0 -11,0 -20,-9 -20,-20 0,-7 3,-13 9,-17l130 -83c3,-2 6,-3 10,-3 11,0 20,9 20,21 0,6 -3,12 -8,16l-130 83c-4,2 -7,3 -11,3z"/>
         <path fill="#FEFEFE"
               d="M1117 1117c0,0 0,0 0,0 -4,0 -8,-1 -11,-3l-130 -83c-6,-4 -9,-10 -9,-17 0,-11 9,-20 20,-20 4,0 7,1 11,3l130 83c6,4 9,10 9,17 0,11 -9,20 -20,20 0,0 0,0 0,0l0 0z"/>
  </g>
 </g>
</svg>
