<svg xmlns="http://www.w3.org/2000/svg" xml:space="preserve" width="313px" height="326px" version="1.1"
     shape-rendering="geometricPrecision" text-rendering="geometricPrecision" image-rendering="optimizeQuality"
     viewBox="0 0 1114 1162"
>
 <g id="Layer_x0020_1">
  <metadata id="CorelCorpID_0Corel-Layer"/>
     <g id="_2542392339008">
   <path fill="currentColor" d="M701 379l0 36c109,0 197,89 197,198l36 0c1,-129 -104,-234 -233,-234z"/>
         <path fill="currentColor"
               d="M1022 647c2,-12 2,-23 2,-34 0,-179 -145,-324 -323,-324 -63,0 -122,17 -173,50 1,-5 1,-10 1,-14 0,-114 -92,-207 -205,-207 -114,0 -206,93 -206,207 0,67 33,129 86,168 -33,37 -55,86 -59,139 -82,9 -145,78 -145,162 0,89 73,162 162,162l791 0c89,0 161,-73 161,-162 0,-63 -36,-120 -92,-147zm-868 -322c0,-94 76,-171 169,-171 94,0 170,77 170,171 0,15 -2,30 -6,45 -18,16 -34,34 -48,53 -73,-20 -151,-3 -208,44 -48,-31 -77,-85 -77,-142zm799 595l-791 0c-70,0 -126,-57 -126,-126 0,-70 56,-126 126,-126l18 0 0 -18c0,-110 88,-199 197,-199 32,0 76,15 76,15 0,0 85,-141 248,-141 158,0 287,129 287,288 0,31 -5,58 -5,58l13 5c49,18 82,66 82,118 0,69 -56,126 -125,126z"/>
         <rect fill="currentColor" x="306" width="36" height="84" rx="18" ry="18"/>
         <rect fill="currentColor" transform="matrix(0.727498 -0.68611 0.68611 0.727498 79.8379 107.719)" width="36"
               height="84" rx="18" ry="18"/>
         <rect fill="currentColor" transform="matrix(0.00833759 -0.999965 0.999965 0.00833759 -0.146393 342.127)" width="36"
               height="84" rx="18" ry="18"/>
         <rect fill="currentColor" transform="matrix(0.678631 0.734479 -0.734479 0.678631 540.106 81.0779)" width="36"
               height="84" rx="18" ry="18"/>
         <rect fill="currentColor" transform="matrix(0.875366 0.483461 -0.376193 0.681144 433.676 40.7886)" width="36"
               height="84" rx="18" ry="18"/>
         <rect fill="currentColor" transform="matrix(0.875366 -0.483461 -0.376193 -0.681144 225.757 115.185)" width="36"
               height="84" rx="18" ry="18"/>
         <rect fill="currentColor" transform="matrix(-0.709812 -0.704391 0.704391 -0.709812 107.782 565.746)" width="36"
               height="84" rx="18" ry="18"/>
         <rect fill="currentColor" transform="matrix(0.396032 -0.918237 -0.714502 -0.308162 96.7356 250.307)" width="36"
               height="84" rx="18" ry="18"/>
         <rect fill="currentColor" transform="matrix(-0.388294 -0.921536 -0.717069 0.302141 110.669 432.541)" width="36"
               height="84" rx="18" ry="18"/>
         <rect fill="currentColor" transform="matrix(0.398704 0.91708 -0.713602 0.310241 594.62 192.19)" width="36"
               height="84" rx="18" ry="18"/>
         <path fill="currentColor"
               d="M220 1041c-13,-12 -32,-12 -45,0l-67 68c-12,12 -12,31 0,44 11,12 32,12 44,0l68 -68c12,-12 12,-32 0,-44z"/>
         <path fill="currentColor"
               d="M414 1041c-13,-12 -32,-12 -45,0l-67 68c-12,12 -12,31 0,44 11,12 32,12 44,0l68 -68c12,-12 12,-32 0,-44z"/>
         <path fill="currentColor"
               d="M613 1041c-12,-12 -32,-12 -44,0l-67 68c-13,12 -13,31 0,44 11,12 31,12 44,0l67 -68c12,-12 12,-32 0,-44z"/>
         <path fill="currentColor"
               d="M809 1041c-13,-12 -32,-12 -44,0l-68 68c-12,12 -12,31 0,44 11,12 32,12 44,0l68 -68c12,-12 12,-32 0,-44z"/>
         <path fill="currentColor"
               d="M1006 1041c-12,-12 -31,-12 -44,0l-67 68c-12,12 -12,31 0,44 11,12 32,12 44,0l67 -68c13,-12 13,-32 0,-44z"/>
  </g>
 </g>
</svg>
