<svg xmlns="http://www.w3.org/2000/svg" xml:space="preserve" width="313px" height="219px" version="1.1"
     shape-rendering="geometricPrecision" text-rendering="geometricPrecision" image-rendering="optimizeQuality"
     viewBox="0 0 1432 1002">
 <g id="Layer_x0020_1">
  <metadata id="CorelCorpID_0Corel-Layer"/>
     <path fill="#FEFEFE"
           d="M1431 667c-13,-161 -148,-285 -309,-285 -25,0 -49,3 -72,8 -8,-138 -106,-255 -241,-287 -2,0 -4,-1 -7,-1 -62,-101 -193,-132 -294,-70 -47,29 -81,75 -95,128 -96,-43 -209,0 -253,96 -11,24 -17,51 -17,78 0,9 1,17 2,25 -91,13 -156,96 -144,188 6,38 24,73 52,100 -3,3 -6,6 -8,10 -29,37 -45,83 -45,130 0,119 96,215 215,215l907 0c8,0 17,0 25,-1 171,-14 298,-163 284,-334zm-1353 -221c23,-26 55,-40 89,-40l2 0c1,0 2,0 2,0 8,1 16,-3 21,-9 5,-6 7,-14 5,-22 -4,-13 -6,-27 -6,-41 0,-79 64,-143 143,-143 30,0 59,9 83,26 10,8 25,5 33,-5 2,-4 4,-8 4,-12 9,-90 86,-157 176,-152 41,2 79,19 107,48 -1,0 -3,0 -4,0l-1 0c-11,0 -22,1 -33,2l-2 1c-10,1 -21,3 -31,6l-2 0c-10,3 -20,6 -30,9l-3 1c-9,4 -18,8 -27,12 -2,1 -3,1 -5,2 -8,4 -16,9 -24,14 -1,1 -3,2 -5,3 -7,5 -15,10 -21,16 -2,1 -4,3 -6,4 -9,7 -17,15 -25,23 -20,19 -36,42 -50,67l0 0 0 0c-1,1 -1,2 -2,3 -10,19 -18,39 -24,59 -5,18 -9,36 -11,54 -1,11 -1,23 -1,34 0,1 0,3 0,4 -51,-10 -104,-3 -151,19 -10,5 -20,11 -30,17 -6,4 -11,8 -16,12 -9,7 -18,15 -25,23 -8,9 -15,17 -22,26 -15,23 -27,48 -35,75 -10,3 -20,8 -30,12 -10,6 -20,12 -30,18 -1,1 -2,2 -3,2 -49,-43 -54,-119 -10,-168zm1065 508c-7,0 -14,1 -21,1l-907 0c-92,-1 -167,-75 -167,-168 0,-36 12,-72 35,-101 6,-9 13,-17 21,-24 12,-10 25,-18 38,-25 11,-5 23,-9 35,-12 9,-2 16,-10 18,-19 5,-25 15,-50 30,-71 5,-7 11,-14 17,-21 7,-7 14,-13 22,-19 3,-3 7,-6 12,-9 7,-5 15,-10 23,-14 6,-3 13,-5 19,-7 5,-2 9,-3 14,-5 2,0 3,-1 5,-1 5,-1 10,-2 15,-3 1,0 3,0 4,-1 5,0 9,-1 14,-1 2,0 4,0 7,0 4,0 9,0 13,0 2,0 3,0 5,0 4,0 9,1 13,1 2,1 3,1 5,1 5,1 9,2 13,3 2,0 3,0 5,1 5,1 11,3 16,5 13,5 26,-1 31,-14 2,-3 2,-7 1,-11 -1,-12 -2,-23 -2,-34 0,-10 1,-19 2,-28 1,-16 4,-31 9,-46 5,-18 12,-35 21,-51 0,0 0,-1 0,-1 1,0 1,-1 1,-2 11,-20 25,-39 42,-56 49,-51 117,-79 188,-79 8,0 16,1 23,1 7,1 14,2 20,3l2 0c4,1 9,2 13,3 119,28 204,133 204,256 0,5 0,10 0,15 -1,13 9,24 23,25 3,0 6,0 9,-1 28,-10 58,-16 88,-15 144,-1 262,117 262,262 1,136 -104,251 -241,262z"/>
 </g>
</svg>
