<svg xmlns="http://www.w3.org/2000/svg" xml:space="preserve" width="122px" height="215px" version="1.1"
     shape-rendering="geometricPrecision" text-rendering="geometricPrecision" image-rendering="optimizeQuality"
     viewBox="0 0 137 241"
>
 <g id="Layer_x0020_1">
  <metadata id="CorelCorpID_0Corel-Layer"/>
     <g id="_2542350207488">
   <g>
    <g>
     <path fill="currentColor"
           d="M137 83c-1,-2 -2,-3 -4,-3l-47 0 47 -74c0,-1 0,-3 0,-4 -1,-1 -2,-2 -4,-2l-64 0c-2,0 -3,1 -4,2l-60 121c-1,1 -1,3 0,4 0,1 2,2 3,2l42 0 -45 107c-1,2 0,4 1,5 1,0 1,0 2,0 1,0 3,0 3,-1l129 -153c1,-1 1,-3 1,-4zm-119 131l37 -88c1,-1 1,-2 0,-4 -1,0 -2,-1 -3,-1l-41 0 56 -113 55 0 -48 74c-1,2 -1,3 0,5 1,1 2,2 4,2l47 0 -107 125z"/>
    </g>
   </g>
         <g>
   </g>
         <g>
   </g>
         <g>
   </g>
         <g>
   </g>
         <g>
   </g>
         <g>
   </g>
         <g>
   </g>
         <g>
   </g>
         <g>
   </g>
         <g>
   </g>
         <g>
   </g>
         <g>
   </g>
         <g>
   </g>
         <g>
   </g>
         <g>
   </g>
  </g>
 </g>
</svg>
