<svg xmlns="http://www.w3.org/2000/svg" xml:space="preserve" width="234px" height="232px" version="1.1"
     shape-rendering="geometricPrecision" text-rendering="geometricPrecision" image-rendering="optimizeQuality"
     viewBox="0 0 575 570">
 <g id="Layer_x0020_1">
  <metadata id="CorelCorpID_0Corel-Layer"/>
     <g id="_2542378552560">
   <path fill="currentColor"
         d="M78 96l0 0c6,-5 15,-5 21,1l27 29c6,6 5,16 -1,21l0 0c-6,6 -15,6 -21,0l-27 -29c-6,-6 -5,-16 1,-22z"/>
         <path fill="currentColor"
               d="M0 287l0 0c0,-8 7,-15 15,-15l40 1c8,0 15,7 15,15l0 0c0,8 -7,15 -15,15l-40 -1c-8,0 -15,-6 -15,-15z"/>
         <path fill="currentColor"
               d="M79 478l0 0c-6,-6 -6,-15 0,-21l28 -28c6,-6 16,-6 21,0l0 0c6,6 6,15 1,21l-28 28c-6,6 -16,6 -22,0z"/>
         <path fill="currentColor"
               d="M87 212l0 0c3,-8 -1,-17 -8,-20l-23 -9c-7,-4 -16,0 -19,7l0 0c-4,8 0,17 8,20l22 10c8,3 16,-1 20,-8z"/>
         <path fill="currentColor"
               d="M87 364l0 0c-4,-8 -13,-11 -20,-8l-23 9c-7,4 -11,12 -8,20l0 0c4,8 12,11 20,8l23 -9c7,-4 11,-13 8,-20z"/>
  </g>
     <path fill="none" stroke="currentColor" stroke-width="25" stroke-miterlimit="22.9256"
           d="M291 127c87,0 157,72 157,160 0,89 -70,161 -157,161 -86,0 -156,-72 -156,-161 0,-88 70,-160 156,-160z"/>
     <g id="_2542378488176">
   <path fill="currentColor"
         d="M498 96l0 0c-6,-5 -16,-5 -22,1l-27 29c-6,6 -5,16 1,21l0 0c6,6 15,6 21,0l27 -29c6,-6 6,-16 0,-22z"/>
         <path fill="currentColor"
               d="M575 287l0 0c0,-8 -7,-15 -15,-15l-40 1c-8,0 -15,7 -15,15l0 0c0,8 7,15 15,15l40 -1c9,0 15,-6 15,-15z"/>
         <path fill="currentColor"
               d="M496 478l0 0c6,-6 6,-15 0,-21l-28 -28c-6,-6 -15,-6 -21,0l0 0c-6,6 -6,15 0,21l28 28c5,6 15,6 21,0z"/>
         <path fill="currentColor"
               d="M488 212l0 0c-3,-8 1,-17 8,-20l23 -9c7,-4 16,0 19,7l0 0c4,8 0,17 -7,20l-23 10c-7,3 -16,-1 -20,-8z"/>
         <path fill="currentColor"
               d="M489 364l0 0c3,-8 12,-11 19,-8l23 9c7,4 11,12 8,20l0 0c-3,8 -12,11 -20,8l-22 -9c-8,-4 -12,-13 -8,-20z"/>
  </g>
     <g id="_2542378489680">
   <path fill="currentColor"
         d="M287 570l0 0c8,0 15,-7 14,-15l0 -40c0,-8 -7,-15 -15,-15l0 0c-8,0 -15,7 -15,15l0 40c1,9 7,15 16,15z"/>
         <path fill="currentColor"
               d="M362 483l0 0c8,-3 16,1 20,8l9 23c4,7 0,16 -8,19l0 0c-7,4 -16,0 -19,-7l-10 -23c-3,-7 0,-16 8,-20z"/>
         <path fill="currentColor"
               d="M210 484l0 0c8,3 11,12 8,19l-9 23c-4,7 -13,11 -20,8l0 0c-8,-3 -11,-12 -8,-20l9 -22c4,-8 12,-12 20,-8z"/>
  </g>
     <g id="_2542378490384">
   <path fill="currentColor"
         d="M287 0l0 0c8,0 15,7 14,15l0 40c0,8 -7,15 -15,15l0 0c-8,0 -15,-7 -15,-15l0 -40c1,-8 7,-15 16,-15z"/>
         <path fill="currentColor"
               d="M362 87l0 0c8,3 16,-1 20,-8l9 -23c4,-7 0,-16 -8,-19l0 0c-7,-4 -16,0 -19,8l-10 22c-3,8 0,16 8,20z"/>
         <path fill="currentColor"
               d="M210 87l0 0c8,-4 11,-13 8,-20l-9 -23c-4,-7 -13,-11 -20,-8l0 0c-8,4 -11,12 -8,20l9 23c4,7 12,11 20,8z"/>
  </g>
 </g>
</svg>
