<svg xmlns="http://www.w3.org/2000/svg" xml:space="preserve" width="313px" height="268px" version="1.1"
     shape-rendering="geometricPrecision" text-rendering="geometricPrecision" image-rendering="optimizeQuality"
     viewBox="0 0 1681 1442"
     >
 <g id="Layer_x0020_1">
  <metadata id="CorelCorpID_0Corel-Layer"/>
     <g id="_2542392299424">
   <path fill="#FEFEFE" d="M1057 571l0 55c165,0 298,134 298,299l55 0c0,-195 -158,-354 -353,-354z"/>
         <path fill="#FEFEFE"
               d="M1542 977c2,-19 3,-35 3,-52 0,-270 -219,-490 -488,-490 -94,0 -183,27 -260,76 1,-7 2,-14 2,-21 0,-172 -140,-312 -311,-312 -171,0 -310,140 -310,312 0,101 49,195 131,253 -51,57 -85,130 -91,211 -122,13 -218,117 -218,244 0,135 110,244 244,244l1193 0c135,0 244,-109 244,-244 0,-95 -55,-181 -139,-221zm-1310 -487c0,-142 115,-257 256,-257 141,0 256,115 256,257 0,23 -3,46 -9,68 -27,24 -52,51 -73,81 -110,-30 -227,-5 -314,66 -72,-47 -116,-128 -116,-215zm1205 898l-1193 0c-105,0 -190,-86 -190,-190 0,-106 85,-191 190,-191l27 0 0 -27c0,-165 134,-299 298,-299 48,0 115,22 115,22 0,0 128,-213 373,-213 240,0 434,196 434,435 0,46 -9,87 -9,87l21 7c74,28 123,100 123,179 1,104 -84,190 -189,190z"/>
         <rect fill="#FEFEFE" x="461" width="54" height="126" rx="27" ry="27"/>
         <rect fill="#FEFEFE" transform="matrix(0.727498 -0.68611 0.68611 0.727498 120.46 162.528)" width="54"
               height="126" rx="27" ry="27"/>
         <rect fill="#FEFEFE" transform="matrix(0.00833759 -0.999965 0.999965 0.00833759 -0.22088 516.205)" width="54"
               height="126" rx="27" ry="27"/>
         <rect fill="#FEFEFE" transform="matrix(0.678631 0.734479 -0.734479 0.678631 814.92 122.331)" width="54"
               height="126" rx="27" ry="27"/>
         <rect fill="#FEFEFE" transform="matrix(0.875366 0.483461 -0.376193 0.681144 654.337 61.5425)" width="54"
               height="126" rx="27" ry="27"/>
         <rect fill="#FEFEFE" transform="matrix(0.875366 -0.483461 -0.376193 -0.681144 340.626 173.793)" width="54"
               height="126" rx="27" ry="27"/>
         <rect fill="#FEFEFE" transform="matrix(-0.709812 -0.704391 0.704391 -0.709812 162.623 853.605)" width="54"
               height="126" rx="27" ry="27"/>
         <rect fill="#FEFEFE" transform="matrix(0.396032 -0.918237 -0.714502 -0.308162 145.956 377.666)" width="54"
               height="126" rx="27" ry="27"/>
         <rect fill="#FEFEFE" transform="matrix(-0.388294 -0.921536 -0.717069 0.302141 166.978 652.624)" width="54"
               height="126" rx="27" ry="27"/>
         <rect fill="#FEFEFE" transform="matrix(0.398704 0.91708 -0.713602 0.310241 897.171 289.979)" width="54"
               height="126" rx="27" ry="27"/>
  </g>
 </g>
</svg>
